<svg width="50" height="50" viewBox="0 0 50 50" fill="none" xmlns="http://www.w3.org/2000/svg">
<path fill-rule="evenodd" clip-rule="evenodd" d="M15.552 2.22081C17.9958 2.10831 18.7749 2.08331 24.9999 2.08331C31.2249 2.08331 32.0041 2.1104 34.4458 2.22081C36.8874 2.33123 38.5541 2.72081 40.0124 3.2854C41.5395 3.86248 42.9249 4.76456 44.0708 5.93123C45.2374 7.07498 46.1374 8.45831 46.7124 9.98748C47.2791 11.4458 47.6666 13.1125 47.7791 15.55C47.8916 17.9979 47.9166 18.7771 47.9166 25C47.9166 31.225 47.8895 32.0041 47.7791 34.4479C47.6687 36.8854 47.2791 38.5521 46.7124 40.0104C46.1374 41.5398 45.2359 42.9254 44.0708 44.0708C42.9249 45.2375 41.5395 46.1375 40.0124 46.7125C38.5541 47.2791 36.8874 47.6666 34.4499 47.7791C32.0041 47.8916 31.2249 47.9166 24.9999 47.9166C18.7749 47.9166 17.9958 47.8896 15.552 47.7791C13.1145 47.6687 11.4478 47.2791 9.9895 46.7125C8.46017 46.1374 7.07454 45.2359 5.92909 44.0708C4.76321 42.9264 3.86099 41.5414 3.28534 40.0125C2.72075 38.5541 2.33325 36.8875 2.22075 34.45C2.10825 32.0021 2.08325 31.2229 2.08325 25C2.08325 18.775 2.11034 17.9958 2.22075 15.5541C2.33117 13.1125 2.72075 11.4458 3.28534 9.98748C3.86184 8.45848 4.76475 7.07355 5.93117 5.92915C7.075 4.76352 8.45924 3.86132 9.98742 3.2854C11.4458 2.72081 13.1124 2.33331 15.5499 2.22081H15.552ZM34.2603 6.34581C31.8437 6.2354 31.1187 6.21248 24.9999 6.21248C18.8812 6.21248 18.1562 6.2354 15.7395 6.34581C13.5041 6.4479 12.2916 6.82081 11.4833 7.1354C10.4145 7.55206 9.64992 8.04581 8.84784 8.8479C8.08751 9.58759 7.50238 10.4881 7.13534 11.4833C6.82075 12.2916 6.44784 13.5041 6.34575 15.7396C6.23534 18.1562 6.21242 18.8812 6.21242 25C6.21242 31.1187 6.23534 31.8437 6.34575 34.2604C6.44784 36.4958 6.82075 37.7083 7.13534 38.5166C7.502 39.5104 8.08742 40.4125 8.84784 41.1521C9.58742 41.9125 10.4895 42.4979 11.4833 42.8646C12.2916 43.1791 13.5041 43.5521 15.7395 43.6541C18.1562 43.7646 18.8791 43.7875 24.9999 43.7875C31.1208 43.7875 31.8437 43.7646 34.2603 43.6541C36.4958 43.5521 37.7083 43.1791 38.5166 42.8646C39.5853 42.4479 40.3499 41.9541 41.152 41.1521C41.9124 40.4125 42.4978 39.5104 42.8645 38.5166C43.1791 37.7083 43.552 36.4958 43.6541 34.2604C43.7645 31.8437 43.7874 31.1187 43.7874 25C43.7874 18.8812 43.7645 18.1562 43.6541 15.7396C43.552 13.5041 43.1791 12.2916 42.8645 11.4833C42.4478 10.4146 41.9541 9.64998 41.152 8.8479C40.4123 8.08763 39.5118 7.5025 38.5166 7.1354C37.7083 6.82081 36.4958 6.4479 34.2603 6.34581ZM22.0728 32.0646C23.7075 32.745 25.5278 32.8369 27.2227 32.3244C28.9176 31.8119 30.382 30.7269 31.3658 29.2546C32.3496 27.7824 32.7917 26.0143 32.6167 24.2523C32.4417 22.4903 31.6603 20.8437 30.4062 19.5937C29.6067 18.7947 28.6399 18.1829 27.5756 17.8024C26.5113 17.4218 25.3758 17.282 24.251 17.3929C23.1261 17.5039 22.0398 17.8628 21.0703 18.444C20.1009 19.0252 19.2723 19.814 18.6443 20.7538C18.0163 21.6936 17.6045 22.761 17.4385 23.8791C17.2725 24.9971 17.3565 26.1381 17.6844 27.2198C18.0123 28.3015 18.5759 29.2971 19.3348 30.1348C20.0936 30.9725 21.0287 31.6316 22.0728 32.0646ZM16.6708 16.6708C17.7646 15.577 19.0631 14.7094 20.4922 14.1174C21.9213 13.5254 23.4531 13.2208 24.9999 13.2208C26.5468 13.2208 28.0785 13.5254 29.5076 14.1174C30.9368 14.7094 32.2353 15.577 33.3291 16.6708C34.4229 17.7646 35.2905 19.0631 35.8825 20.4923C36.4745 21.9214 36.7791 23.4531 36.7791 25C36.7791 26.5468 36.4745 28.0786 35.8825 29.5077C35.2905 30.9368 34.4229 32.2353 33.3291 33.3291C31.1201 35.5382 28.124 36.7792 24.9999 36.7792C21.8759 36.7792 18.8798 35.5382 16.6708 33.3291C14.4617 31.1201 13.2207 28.124 13.2207 25C13.2207 21.8759 14.4617 18.8798 16.6708 16.6708ZM39.3916 14.975C39.6626 14.7193 39.8796 14.4118 40.0297 14.0708C40.1798 13.7297 40.2599 13.362 40.2654 12.9894C40.2708 12.6168 40.2014 12.247 40.0613 11.9017C39.9213 11.5564 39.7133 11.2427 39.4498 10.9792C39.1864 10.7157 38.8727 10.5078 38.5274 10.3677C38.1821 10.2276 37.8122 10.1583 37.4396 10.1637C37.0671 10.1691 36.6994 10.2493 36.3583 10.3993C36.0173 10.5494 35.7098 10.7664 35.4541 11.0375C34.9568 11.5646 34.6846 12.2648 34.6951 12.9894C34.7057 13.714 34.9982 14.406 35.5107 14.9184C36.0231 15.4308 36.715 15.7234 37.4396 15.7339C38.1642 15.7445 38.8644 15.4722 39.3916 14.975Z" fill="black"/>
</svg>
