<svg width="35" height="35" viewBox="0 0 35 35" fill="none" xmlns="http://www.w3.org/2000/svg">
<path d="M33.3938 1.09375H31.8554V1.58375C29.7139 2.06281 29.406 4.0507 29.2851 4.81031C29.2277 5.16961 29.1112 5.87234 28.9669 6.73313H2.18091C1.12107 6.73313 1.0024 7.72352 1.14076 8.27148L4.2831 22.1441C4.42091 22.692 5.00115 23.1394 5.5699 23.1394H29.0549C29.6204 23.1394 30.0814 23.5993 30.0814 24.1648C30.0814 24.7302 29.6204 25.1902 29.0549 25.1902H3.42068C3.14873 25.1902 2.88792 25.2982 2.69562 25.4905C2.50332 25.6828 2.39529 25.9436 2.39529 26.2155C2.39529 26.4875 2.50332 26.7483 2.69562 26.9406C2.88792 27.1329 3.14873 27.2409 3.42068 27.2409H4.74959C4.10794 27.5952 3.57303 28.115 3.2006 28.7463C2.82817 29.3775 2.63185 30.0971 2.63209 30.8301H3.65748C3.65748 32.5281 5.0356 33.9062 6.73365 33.9062C8.4317 33.9062 9.80982 32.5281 9.80982 30.8301H10.8352C10.8353 30.0971 10.6389 29.3775 10.2664 28.7462C9.89386 28.115 9.35888 27.5952 8.71716 27.2409H23.2061C22.5644 27.5952 22.0294 28.115 21.6569 28.7462C21.2843 29.3775 21.0879 30.0971 21.088 30.8301H22.1134C22.1286 31.636 22.4594 32.4038 23.0348 32.9684C23.6101 33.533 24.384 33.8493 25.1901 33.8493C25.9962 33.8493 26.7701 33.533 27.3455 32.9684C27.9208 32.4038 28.2517 31.636 28.2669 30.8301H29.2922C29.2923 30.0972 29.0959 29.3777 28.7235 28.7464C28.3511 28.1152 27.8163 27.5953 27.1747 27.2409H29.056C29.8717 27.2405 30.6539 26.9163 31.2307 26.3395C31.8075 25.7627 32.1317 24.9805 32.1322 24.1648C32.1321 23.7607 32.0524 23.3607 31.8978 22.9874C31.7431 22.6141 31.5164 22.275 31.2306 21.9894C30.9449 21.7037 30.6057 21.4771 30.2323 21.3226C29.859 21.168 29.4589 21.0885 29.0549 21.0886H28.6737L29.9851 12.9347C30.3504 10.7811 31.1379 6.12883 31.3228 4.97164C31.4158 4.38703 31.506 3.97633 31.8554 3.74609V4.16937H33.3938C33.5295 4.16894 33.6595 4.11489 33.7555 4.01901C33.8515 3.92312 33.9057 3.79317 33.9062 3.6575V1.60672C33.9059 1.47085 33.8519 1.34063 33.7559 1.24451C33.6598 1.14838 33.5297 1.09418 33.3938 1.09375ZM6.73365 32.3684C6.32578 32.368 5.93475 32.2058 5.64634 31.9174C5.35794 31.629 5.19572 31.2379 5.19529 30.8301H8.27146C8.27103 31.2378 8.10889 31.6288 7.8206 31.9172C7.53231 32.2056 7.14142 32.3679 6.73365 32.3684ZM25.1907 32.3684C24.7827 32.3681 24.3915 32.206 24.103 31.9176C23.8145 31.6292 23.6522 31.238 23.6518 30.8301H26.729C26.7283 31.2379 26.566 31.6287 26.2777 31.9171C25.9893 32.2054 25.5985 32.3677 25.1907 32.3684ZM23.929 9.29359C23.9471 9.1546 24.0144 9.02671 24.1188 8.93317C24.2232 8.83964 24.3577 8.78667 24.4978 8.78391H27.7446C28.0268 8.78391 28.2231 9.01141 28.1788 9.29086L27.8572 11.3531C27.8146 11.632 27.5472 11.8601 27.2644 11.8601H24.1675C24.1023 11.8618 24.0374 11.8494 23.9775 11.8237C23.9175 11.798 23.8639 11.7596 23.8202 11.7111C23.7764 11.6627 23.7438 11.6054 23.7243 11.5431C23.7049 11.4808 23.6992 11.4151 23.7076 11.3504L23.929 9.29359ZM23.3772 14.4205C23.3956 14.2817 23.463 14.154 23.5674 14.0605C23.6717 13.967 23.806 13.914 23.946 13.9109H26.9445C27.2272 13.9109 27.423 14.1384 27.3804 14.4178L27.1381 15.9677C27.0949 16.2466 26.828 16.4746 26.5453 16.4746H23.6704C23.6052 16.4762 23.5405 16.4636 23.4806 16.4378C23.4207 16.4121 23.3671 16.3737 23.3235 16.3253C23.2798 16.2769 23.2471 16.2196 23.2276 16.1574C23.2081 16.0953 23.2022 16.0296 23.2104 15.9649L23.3772 14.4205ZM3.75482 11.3624L3.23529 9.28156C3.16748 9.00703 3.34357 8.78391 3.62631 8.78391H7.4867C7.76998 8.78391 8.02537 9.01305 8.05545 9.29359L8.27638 11.3509C8.28458 11.4156 8.27874 11.4812 8.25927 11.5433C8.23979 11.6055 8.20713 11.6627 8.16353 11.7111C8.11992 11.7595 8.06639 11.7979 8.00659 11.8237C7.94679 11.8495 7.88212 11.8621 7.81701 11.8606H4.39302C4.11084 11.8606 3.82318 11.6359 3.75482 11.3624ZM5.54365 16.4746C5.26146 16.4746 4.97381 16.2504 4.90599 15.977L4.51443 14.4091C4.44607 14.1345 4.62107 13.9114 4.90381 13.9114H8.03685C8.31959 13.9114 8.57552 14.1405 8.6056 14.4211L8.77185 15.9655C8.78014 16.0301 8.77437 16.0958 8.75493 16.158C8.73549 16.2201 8.70284 16.2774 8.65921 16.3258C8.61559 16.3742 8.56202 16.4126 8.50217 16.4384C8.44233 16.4642 8.37762 16.4767 8.31248 16.4752H5.54365V16.4746ZM8.80795 21.0891H6.69427C6.41045 21.0891 6.12443 20.8649 6.05607 20.5915L5.66451 19.0236C5.5967 18.7491 5.7717 18.5259 6.05498 18.5259H8.53232C8.81506 18.5259 9.07099 18.7551 9.10216 19.0356L9.26732 20.58C9.27562 20.6446 9.26985 20.7102 9.25041 20.7724C9.23096 20.8346 9.1983 20.8918 9.15467 20.9402C9.11103 20.9885 9.05746 21.0269 8.99761 21.0526C8.93776 21.0783 8.87306 21.0908 8.80795 21.0891ZM15.0926 20.5762C15.0921 20.7122 15.0377 20.8425 14.9414 20.9386C14.8451 21.0348 14.7146 21.0889 14.5786 21.0891H11.9038C11.7638 21.0862 11.6294 21.0332 11.5252 20.9397C11.4209 20.8462 11.3536 20.7184 11.3356 20.5795L11.1694 19.0351C11.1609 18.9705 11.1665 18.9048 11.1858 18.8425C11.2052 18.7803 11.2378 18.723 11.2814 18.6746C11.325 18.6261 11.3786 18.5877 11.4384 18.562C11.4983 18.5362 11.563 18.5237 11.6282 18.5254H14.5786C14.7147 18.5254 14.8453 18.5794 14.9417 18.6756C15.0381 18.7717 15.0923 18.9022 15.0926 19.0384V20.5762ZM15.0926 15.9622C15.0921 16.0982 15.0377 16.2286 14.9414 16.3247C14.8451 16.4208 14.7146 16.4749 14.5786 16.4752H11.4078C11.1256 16.4752 10.8708 16.246 10.839 15.9655L10.6739 14.4211C10.6655 14.3565 10.6712 14.2908 10.6906 14.2286C10.7099 14.1665 10.7425 14.1092 10.7861 14.0608C10.8297 14.0124 10.8832 13.9739 10.9431 13.9482C11.0029 13.9224 11.0676 13.9098 11.1327 13.9114H14.5786C14.7147 13.9114 14.8453 13.9654 14.9417 14.0616C15.0381 14.1578 15.0923 14.2882 15.0926 14.4244V15.9622ZM15.0926 11.3477C15.0921 11.4837 15.0377 11.614 14.9414 11.7101C14.8451 11.8062 14.7146 11.8603 14.5786 11.8606H10.9134C10.7733 11.8579 10.6388 11.8049 10.5344 11.7114C10.43 11.6178 10.3627 11.4899 10.3447 11.3509L10.1237 9.29359C10.1154 9.22896 10.1212 9.1633 10.1406 9.10111C10.1601 9.03892 10.1927 8.98166 10.2364 8.93325C10.28 8.88485 10.3336 8.84645 10.3934 8.82067C10.4533 8.79489 10.518 8.78235 10.5831 8.78391H14.5791C14.7153 8.78391 14.8459 8.83792 14.9422 8.93408C15.0386 9.03025 15.0929 9.16073 15.0932 9.29688V11.3477H15.0926ZM20.6483 20.5795C20.6302 20.7184 20.5628 20.8462 20.4585 20.9397C20.3541 21.0333 20.2197 21.0863 20.0796 21.0891H17.6624C17.5264 21.0889 17.396 21.0347 17.2998 20.9386C17.2036 20.8425 17.1493 20.7122 17.1489 20.5762V19.0378C17.1492 18.9018 17.2034 18.7714 17.2996 18.6752C17.3959 18.5791 17.5263 18.525 17.6624 18.5248H20.3552C20.6374 18.5248 20.8452 18.754 20.8146 19.0345L20.6483 20.5795ZM21.1438 15.9649C21.1256 16.1039 21.0583 16.2317 20.9539 16.3252C20.8496 16.4187 20.7152 16.4717 20.5751 16.4746H17.6624C17.5264 16.4743 17.396 16.4202 17.2998 16.3241C17.2036 16.228 17.1493 16.0976 17.1489 15.9616V14.4233C17.1492 14.2872 17.2034 14.1568 17.2996 14.0607C17.3959 13.9645 17.5263 13.9105 17.6624 13.9103H20.8507C21.1334 13.9103 21.3407 14.1395 21.3095 14.42L21.1438 15.9649ZM21.6393 11.3509C21.6211 11.4899 21.5537 11.6177 21.4494 11.7112C21.345 11.8047 21.2106 11.8577 21.0705 11.8606H17.6624C17.5264 11.8603 17.396 11.8062 17.2998 11.7101C17.2036 11.614 17.1493 11.4837 17.1489 11.3477V9.29688C17.1492 9.16082 17.2034 9.03043 17.2996 8.93428C17.3959 8.83812 17.5263 8.78405 17.6624 8.78391H21.4014C21.6841 8.78391 21.8914 9.01305 21.8613 9.29359L21.6393 11.3509ZM25.5943 21.0891V21.0853L25.5899 21.0891H23.1749C23.159 21.0891 23.1454 21.0815 23.1295 21.0793C23.1268 21.0607 23.1268 21.0421 23.1235 21.0224L23.0994 21.0727C23.1061 21.0745 23.1129 21.076 23.1197 21.0771C22.8676 21.0481 22.6871 20.8398 22.7161 20.5795L22.8812 19.0351C22.8996 18.8962 22.967 18.7685 23.0713 18.675C23.1756 18.5816 23.3099 18.5285 23.45 18.5254H26.2259C26.5086 18.5254 26.7033 18.7529 26.6607 19.0323L26.4184 20.5822C26.3763 20.8611 26.1094 21.0891 25.8267 21.0891H25.5943Z" fill="black"/>
</svg>
