<svg width="40" height="40" viewBox="0 0 40 40" fill="none" xmlns="http://www.w3.org/2000/svg">
<path d="M12.9533 4.06478L14.7466 3.49145C16.43 2.95478 18.225 3.82312 18.9466 5.51978L20.3783 8.89979C21.0016 10.3715 20.6566 12.1031 19.5216 13.1798L16.365 16.1765C16.5583 17.9698 17.1616 19.7348 18.1716 21.4715C19.1313 23.1518 20.4184 24.6225 21.9566 25.7965L25.7483 24.5298C27.1866 24.0515 28.7516 24.6031 29.6316 25.8981L31.6866 28.9148C32.7116 30.4215 32.5283 32.4981 31.2566 33.7748L29.8933 35.1431C28.5366 36.5048 26.5983 36.9998 24.8066 36.4398C20.575 35.1198 16.685 31.2015 13.135 24.6848C9.57997 18.1581 8.32497 12.6181 9.37164 8.07145C9.81164 6.15812 11.1733 4.63312 12.9533 4.06478Z" fill="black"/>
</svg>
