<svg width="40" height="40" viewBox="0 0 40 40" fill="none" xmlns="http://www.w3.org/2000/svg">
<path d="M20.0001 3.21442C27.693 3.21442 33.9287 9.45013 33.9287 17.143C33.9287 23.0287 29.793 29.443 21.6287 36.4544C21.1747 36.8444 20.5959 37.0586 19.9974 37.0581C19.399 37.0575 18.8205 36.8423 18.3672 36.4516L17.8272 35.983C10.0244 29.1544 6.07153 22.8973 6.07153 17.143C6.07153 9.45013 12.3072 3.21442 20.0001 3.21442ZM20.0001 11.7858C18.5793 11.7858 17.2167 12.3503 16.212 13.3549C15.2074 14.3596 14.643 15.7222 14.643 17.143C14.643 18.5638 15.2074 19.9264 16.212 20.9311C17.2167 21.9357 18.5793 22.5001 20.0001 22.5001C21.4209 22.5001 22.7835 21.9357 23.7882 20.9311C24.7928 19.9264 25.3572 18.5638 25.3572 17.143C25.3572 15.7222 24.7928 14.3596 23.7882 13.3549C22.7835 12.3503 21.4209 11.7858 20.0001 11.7858Z" fill="black"/>
</svg>
