<svg width="111" height="111" viewBox="0 0 111 111" fill="none" xmlns="http://www.w3.org/2000/svg">
<path fill-rule="evenodd" clip-rule="evenodd" d="M75.5 40.5C75.5 45.8043 73.3929 50.8914 69.6421 54.6421C65.8914 58.3929 60.8043 60.5 55.5 60.5C50.1957 60.5 45.1086 58.3929 41.3579 54.6421C37.6071 50.8914 35.5 45.8043 35.5 40.5C35.5 35.1957 37.6071 30.1086 41.3579 26.3579C45.1086 22.6071 50.1957 20.5 55.5 20.5C60.8043 20.5 65.8914 22.6071 69.6421 26.3579C73.3929 30.1086 75.5 35.1957 75.5 40.5ZM65.5 40.5C65.5 43.1522 64.4464 45.6957 62.5711 47.5711C60.6957 49.4464 58.1522 50.5 55.5 50.5C52.8478 50.5 50.3043 49.4464 48.4289 47.5711C46.5536 45.6957 45.5 43.1522 45.5 40.5C45.5 37.8478 46.5536 35.3043 48.4289 33.4289C50.3043 31.5536 52.8478 30.5 55.5 30.5C58.1522 30.5 60.6957 31.5536 62.5711 33.4289C64.4464 35.3043 65.5 37.8478 65.5 40.5Z" fill="#FFCC92"/>
<path fill-rule="evenodd" clip-rule="evenodd" d="M55.5 0.5C25.125 0.5 0.5 25.125 0.5 55.5C0.5 85.875 25.125 110.5 55.5 110.5C85.875 110.5 110.5 85.875 110.5 55.5C110.5 25.125 85.875 0.5 55.5 0.5ZM10.5 55.5C10.5 65.95 14.065 75.57 20.04 83.21C24.2362 77.6995 29.6495 73.2337 35.8572 70.1616C42.0648 67.0894 48.8987 65.494 55.825 65.5C62.6616 65.4935 69.4096 67.0476 75.5546 70.0439C81.6997 73.0402 87.0798 77.3996 91.285 82.79C95.6172 77.108 98.5342 70.4761 99.7945 63.4429C101.055 56.4098 100.622 49.1777 98.5325 42.3449C96.4428 35.5122 92.7561 29.2752 87.7774 24.1502C82.7988 19.0251 76.6712 15.1593 69.9019 12.8725C63.1326 10.5858 55.916 9.94386 48.8493 10.9999C41.7826 12.0559 35.069 14.7795 29.2638 18.9453C23.4587 23.1111 18.7291 28.5993 15.4661 34.956C12.2032 41.3126 10.5009 48.3548 10.5 55.5ZM55.5 100.5C45.1697 100.516 35.1513 96.9617 27.14 90.44C30.3646 85.8237 34.6567 82.0546 39.651 79.4534C44.6452 76.8523 50.1939 75.496 55.825 75.5C61.3858 75.4955 66.8674 76.8179 71.8146 79.3571C76.7618 81.8964 81.0318 85.5793 84.27 90.1C76.1965 96.8335 66.0129 100.515 55.5 100.5Z" fill="#FFCC92"/>
</svg>
