<svg width="679" height="538" viewBox="0 0 679 538" fill="none" xmlns="http://www.w3.org/2000/svg">
<g filter="url(#filter0_d)">
<path d="M545.796 530C617.153 530 675 519.005 675 505.441C675 491.877 617.153 480.882 545.796 480.882C474.438 480.882 416.592 491.877 416.592 505.441C416.592 519.005 474.438 530 545.796 530Z" fill="#F8F8F8"/>
<path d="M43.5134 308.991C44.2835 310.641 45.0985 312.309 45.935 313.949L44.1421 314.723C43.2961 313.065 42.4725 311.379 41.6935 309.71L43.5134 308.991Z" fill="#E6E6E6"/>
<path d="M363.273 176.964C364.404 179.181 365.491 181.44 366.503 183.678L364.674 184.377C363.159 181.025 361.483 177.648 359.716 174.38L361.49 173.569C362.096 174.691 362.691 175.823 363.273 176.964ZM355.746 163.795L354.037 164.715C352.03 161.561 349.883 158.438 347.656 155.43L349.293 154.405C351.545 157.447 353.716 160.605 355.746 163.795ZM370.762 194.073C372.05 197.573 373.219 201.152 374.239 204.712L372.324 205.175C371.315 201.657 370.159 198.118 368.885 194.657L370.762 194.073ZM342.154 145.444L340.596 146.57C338.145 143.704 335.552 140.88 332.891 138.178L334.359 136.955C337.051 139.689 339.674 142.545 342.154 145.444ZM376.911 215.547C377.663 219.168 378.287 222.863 378.765 226.526L376.8 226.744C376.326 223.121 375.709 219.469 374.966 215.888L376.911 215.547ZM325.946 128.982L324.573 130.295C321.716 127.769 318.728 125.302 315.694 122.966L316.966 121.57C320.034 123.933 323.055 126.426 325.946 128.982ZM379.793 237.614C379.995 241.307 380.06 245.049 379.985 248.736L378.004 248.702C378.078 245.057 378.014 241.356 377.815 237.705L379.793 237.614ZM307.451 114.741L306.286 116.214C303.078 114.072 299.75 112.004 296.394 110.071L297.445 108.526C300.839 110.482 304.205 112.573 307.451 114.741ZM379.344 259.841C378.993 263.523 378.5 267.235 377.877 270.877L375.921 270.594C376.536 266.993 377.025 263.322 377.372 259.681L379.344 259.841ZM287 102.956L286.065 104.562C282.568 102.84 278.964 101.209 275.35 99.7124L276.162 98.0511C279.818 99.5649 283.464 101.215 287 102.956ZM375.593 281.793C374.701 285.388 373.663 289.003 372.505 292.539L370.609 292.013C371.753 288.518 372.78 284.943 373.662 281.388L375.593 281.793ZM264.985 93.8367L264.297 95.5447C260.578 94.2772 256.764 93.1106 252.96 92.0783L253.521 90.3309C257.367 91.3753 261.224 92.5548 264.985 93.8367ZM368.629 303.064C367.213 306.517 365.65 309.968 363.984 313.32L362.183 312.563C363.831 309.248 365.376 305.836 366.776 302.421L368.629 303.064ZM241.819 87.5525L241.388 89.33C237.521 88.5393 233.568 87.861 229.642 87.3137L229.939 85.5133C233.909 86.0659 237.907 86.7525 241.819 87.5525ZM358.591 323.259C356.679 326.502 354.62 329.724 352.474 332.835L350.801 331.859C352.924 328.783 354.959 325.598 356.851 322.391L358.591 323.259ZM217.93 84.2271L217.768 86.0418C213.811 85.7437 209.794 85.5687 205.826 85.5219L205.852 83.7009C209.865 83.7481 213.928 83.9248 217.93 84.2271V84.2271ZM345.662 342.001C343.288 344.972 340.771 347.903 338.183 350.714L336.672 349.537C339.231 346.757 341.719 343.859 344.066 340.923L345.662 342.001ZM193.76 83.94L193.872 85.7586C189.907 85.964 185.899 86.299 181.959 86.7549L181.712 84.9476C185.697 84.486 189.751 84.1469 193.76 83.94ZM330.074 358.93C327.277 361.575 324.344 364.164 321.357 366.624L320.036 365.266C322.99 362.834 325.889 360.276 328.655 357.66L330.074 358.93ZM169.784 86.7167L170.166 88.5048C166.274 89.2093 162.36 90.0478 158.534 90.9961L158.019 89.2376C161.889 88.2783 165.847 87.4305 169.784 86.7167ZM312.084 373.743C308.919 376.007 305.627 378.2 302.299 380.259L301.194 378.747C304.484 376.711 307.739 374.544 310.867 372.305L312.084 373.743ZM146.472 92.4949L147.116 94.217C143.373 95.4035 139.621 96.7264 135.964 98.1479L135.193 96.4703C138.891 95.0324 142.685 93.695 146.472 92.4949ZM292.052 386.141C288.585 387.982 284.999 389.741 281.394 391.368L280.522 389.732C284.087 388.124 287.633 386.385 291.061 384.563L292.052 386.141ZM125.124 102.766C121.579 104.41 118.054 106.186 114.648 108.042L113.638 106.476C117.083 104.597 120.647 102.802 124.232 101.139L125.124 102.766ZM104.587 113.963C101.318 116.037 98.0902 118.238 94.9933 120.506L93.7599 119.082C96.8917 116.787 100.156 114.561 103.463 112.463L104.587 113.963ZM85.9135 127.643C82.9926 130.104 80.1277 132.69 77.3994 135.329L75.9642 134.073C78.724 131.404 81.6213 128.789 84.5758 126.3L85.9135 127.643ZM69.4799 143.539C66.951 146.35 64.4987 149.275 62.1905 152.233L60.5813 151.171C62.916 148.179 65.3964 145.221 67.9538 142.378L69.4799 143.539ZM55.5646 161.368C53.476 164.474 51.4802 167.681 49.6322 170.9L47.8814 170.05C49.7495 166.795 51.7679 163.551 53.8799 160.41L55.5646 161.368ZM44.4205 180.785C42.8125 184.118 41.3087 187.546 39.9508 190.974L38.0901 190.35C39.4634 186.883 40.9842 183.417 42.6097 180.046L44.4205 180.785ZM36.2468 201.42C35.1453 204.93 34.1616 208.515 33.324 212.077L31.3885 211.692C32.2355 208.09 33.2298 204.463 34.344 200.915L36.2468 201.42ZM31.1971 222.892C30.6258 226.508 30.183 230.184 29.882 233.818L27.907 233.68C28.2117 230.005 28.659 226.287 29.2376 222.629L31.1971 222.892ZM29.3855 244.804C29.3565 248.456 29.4665 252.154 29.7116 255.796L27.735 255.908C27.4871 252.226 27.3761 248.485 27.4045 244.79L29.3855 244.804ZM30.8622 266.743C31.3802 270.359 32.0423 274.004 32.83 277.578L30.8891 277.941C30.0921 274.325 29.4224 270.638 28.8987 266.981L30.8622 266.743ZM35.6061 288.264C36.6594 291.776 37.8594 295.303 39.1737 298.748L37.3041 299.35C35.9753 295.867 34.7617 292.3 33.6965 288.748L35.6061 288.264Z" fill="#E6E6E6"/>
<path d="M269.356 394.339L270.103 396.025C268.252 396.719 266.378 397.388 264.534 398.013L263.849 396.305C265.672 395.686 267.525 395.025 269.356 394.339Z" fill="#E6E6E6"/>
<path d="M362.452 318.096C362.255 317.799 357.594 310.641 355.978 295.778C354.496 282.141 355.449 259.156 368.409 227.093C392.963 166.352 362.751 117.343 362.442 116.855L363.933 116.06C364.011 116.183 371.807 128.679 376.412 148.576C382.498 174.955 380.282 202.383 370.024 227.645C345.513 288.282 363.736 316.988 363.923 317.271L362.452 318.096Z" fill="#3F3D56"/>
<path d="M352.851 113.288C359.035 113.288 364.049 108.677 364.049 102.99C364.049 97.3016 359.035 92.6906 352.851 92.6906C346.667 92.6906 341.653 97.3016 341.653 102.99C341.653 108.677 346.667 113.288 352.851 113.288Z" fill="#F9A826"/>
<path d="M388.167 151.315C394.351 151.315 399.365 146.704 399.365 141.016C399.365 135.329 394.351 130.718 388.167 130.718C381.983 130.718 376.969 135.329 376.969 141.016C376.969 146.704 381.983 151.315 388.167 151.315Z" fill="#3F3D56"/>
<path d="M364.049 176.667C370.233 176.667 375.246 172.056 375.246 166.368C375.246 160.68 370.233 156.069 364.049 156.069C357.864 156.069 352.851 160.68 352.851 166.368C352.851 172.056 357.864 176.667 364.049 176.667Z" fill="#F9A826"/>
<path d="M393.335 198.057C399.519 198.057 404.533 193.446 404.533 187.758C404.533 182.07 399.519 177.459 393.335 177.459C387.151 177.459 382.137 182.07 382.137 187.758C382.137 193.446 387.151 198.057 393.335 198.057Z" fill="#F9A826"/>
<path d="M355.435 231.33C361.62 231.33 366.633 226.719 366.633 221.031C366.633 215.343 361.62 210.732 355.435 210.732C349.251 210.732 344.238 215.343 344.238 221.031C344.238 226.719 349.251 231.33 355.435 231.33Z" fill="#3F3D56"/>
<path d="M369.217 318.475C369.217 318.475 358.019 293.124 391.612 274.111L369.217 318.475Z" fill="#3F3D56"/>
<path d="M355.446 318.016C355.446 318.016 350.349 291.057 310.906 291.288L355.446 318.016Z" fill="#3F3D56"/>
<path d="M281.522 129.016C281.12 128.928 280.695 128.976 280.329 129.154C279.962 129.331 279.678 129.625 279.529 129.98C279.38 130.336 279.377 130.729 279.519 131.087C279.662 131.444 279.941 131.742 280.304 131.925C286.149 134.925 291.29 138.96 295.432 143.796C314.744 166.341 308.001 200.848 280.372 220.868C268.102 229.915 252.806 234.776 237.081 234.624C255.633 239.432 277.531 235.649 295.177 222.862C322.807 202.842 329.55 168.336 310.238 145.791C302.984 137.394 292.87 131.485 281.522 129.016Z" fill="#3F3D56"/>
<path d="M295.432 144.137C314.744 166.683 308.001 201.189 280.372 221.209C270.248 228.628 258.06 233.279 245.2 234.633C260.559 234.549 275.437 229.698 287.425 220.868C315.055 200.847 321.798 166.341 302.486 143.796C297.008 137.417 289.826 132.453 281.641 129.388L281.514 129.359C281.111 129.272 280.688 129.323 280.324 129.501C279.959 129.68 279.676 129.973 279.529 130.329C279.382 130.684 279.38 131.076 279.523 131.432C279.666 131.789 279.944 132.086 280.307 132.268C286.151 135.268 291.291 139.302 295.432 144.137Z" fill="#F9A826"/>
<path d="M209.784 109.327L221.183 127.487L232.583 145.646H209.784H186.986L198.385 127.487L209.784 109.327Z" fill="#F9A826"/>
<path d="M251.362 109.327L262.762 127.487L274.161 145.646H251.362H228.564L239.963 127.487L251.362 109.327Z" fill="#F9A826"/>
<path d="M208.466 118.799L215.499 130.004L222.532 141.207H208.466H194.399L201.432 130.004L208.466 118.799Z" fill="#3F3D56"/>
<path d="M251.196 118.799L258.229 130.004L265.262 141.207H251.196H237.13L244.163 130.004L251.196 118.799Z" fill="#3F3D56"/>
<path d="M310.76 238.517C310.761 255.303 304.536 271.587 293.114 284.679C281.692 297.771 265.756 306.887 247.938 310.523C230.121 314.158 211.488 312.095 195.118 304.674C178.748 297.253 165.62 284.918 157.903 269.707C150.186 254.496 148.341 237.318 152.673 221.013C157.005 204.707 167.256 190.248 181.731 180.024C196.206 169.801 214.039 164.425 232.286 164.784C250.532 165.143 268.1 171.216 282.086 181.999C291.064 188.921 298.284 197.569 303.238 207.333C308.192 217.098 310.76 227.742 310.76 238.517Z" fill="#3F3D56"/>
<path opacity="0.1" d="M282.086 181.999C275.378 198.112 254.852 209.837 230.573 209.837C206.295 209.837 185.769 198.112 179.061 181.999C193.498 170.868 211.735 164.767 230.573 164.767C249.412 164.767 267.649 170.868 282.086 181.999Z" fill="black"/>
<path d="M230.574 204.032C260.302 204.032 284.402 186.452 284.402 164.767C284.402 143.081 260.302 125.501 230.574 125.501C200.845 125.501 176.745 143.081 176.745 164.767C176.745 186.452 200.845 204.032 230.574 204.032Z" fill="#3F3D56"/>
<path d="M205.33 168.523C210.865 168.523 215.353 164.395 215.353 159.304C215.353 154.212 210.865 150.085 205.33 150.085C199.794 150.085 195.306 154.212 195.306 159.304C195.306 164.395 199.794 168.523 205.33 168.523Z" fill="white"/>
<path d="M255.817 168.523C261.353 168.523 265.841 164.395 265.841 159.304C265.841 154.212 261.353 150.085 255.817 150.085C250.282 150.085 245.794 154.212 245.794 159.304C245.794 164.395 250.282 168.523 255.817 168.523Z" fill="white"/>
<path d="M205.33 165.108C208.815 165.108 211.641 162.51 211.641 159.304C211.641 156.098 208.815 153.499 205.33 153.499C201.844 153.499 199.019 156.098 199.019 159.304C199.019 162.51 201.844 165.108 205.33 165.108Z" fill="#3F3D56"/>
<path d="M255.817 165.108C259.303 165.108 262.128 162.51 262.128 159.304C262.128 156.098 259.303 153.499 255.817 153.499C252.332 153.499 249.506 156.098 249.506 159.304C249.506 162.51 252.332 165.108 255.817 165.108Z" fill="#3F3D56"/>
<path d="M219.316 173.983C220.341 173.983 221.172 173.218 221.172 172.275C221.172 171.333 220.341 170.568 219.316 170.568C218.291 170.568 217.46 171.333 217.46 172.275C217.46 173.218 218.291 173.983 219.316 173.983Z" fill="#F9A826"/>
<path d="M218.603 171.842C214.962 173.363 212.551 176.458 208.725 177.789C204.828 179.139 200.543 179.212 196.593 177.996C195.911 177.788 195.619 178.777 196.297 178.983C200.253 180.195 204.53 180.186 208.479 178.956C210.347 178.371 212.1 177.514 213.672 176.418C215.496 175.145 217.05 173.61 219.165 172.727C219.817 172.455 219.251 171.572 218.603 171.842Z" fill="#F9A826"/>
<path d="M220.054 171.407C218.193 171.801 216.398 172.425 214.719 173.262C212.786 174.12 210.704 174.659 208.568 174.853C204.515 175.177 200.462 174.234 197.064 172.175C196.462 171.814 195.904 172.7 196.502 173.06C199.904 175.113 203.93 176.114 207.993 175.916C209.965 175.822 211.908 175.434 213.745 174.769C215.959 173.956 217.969 172.772 220.35 172.395C221.055 172.283 220.756 171.296 220.054 171.407V171.407Z" fill="#F9A826"/>
<path d="M219.059 170.743C216.224 173.204 215.046 176.758 212.039 179.139C208.803 181.7 204.684 183.124 200.415 183.156C200.27 183.161 200.133 183.217 200.033 183.312C199.932 183.408 199.876 183.536 199.876 183.669C199.876 183.802 199.932 183.929 200.033 184.025C200.133 184.12 200.27 184.176 200.415 184.181C204.548 184.153 208.56 182.894 211.85 180.593C213.336 179.556 214.642 178.317 215.723 176.918C217.125 175.094 218.053 173.024 219.846 171.467C220.369 171.014 219.58 170.291 219.059 170.743H219.059Z" fill="#F9A826"/>
<path d="M238.861 173.983C239.886 173.983 240.717 173.218 240.717 172.275C240.717 171.333 239.886 170.568 238.861 170.568C237.836 170.568 237.005 171.333 237.005 172.275C237.005 173.218 237.836 173.983 238.861 173.983Z" fill="#F9A826"/>
<path d="M239.012 172.727C241.104 173.6 242.651 175.11 244.449 176.378C246.036 177.492 247.808 178.363 249.698 178.956C253.646 180.188 257.925 180.198 261.88 178.983C262.557 178.777 262.267 177.788 261.584 177.996C257.634 179.213 253.349 179.139 249.452 177.788C245.626 176.456 243.216 173.363 239.574 171.842C238.926 171.572 238.36 172.454 239.012 172.727Z" fill="#F9A826"/>
<path d="M237.827 172.395C240.115 172.757 242.049 173.866 244.165 174.67C246.081 175.393 248.116 175.814 250.184 175.916C254.247 176.114 258.273 175.113 261.675 173.06C262.273 172.701 261.715 171.814 261.113 172.175C257.717 174.238 253.662 175.182 249.609 174.853C247.474 174.654 245.393 174.116 243.458 173.262C241.778 172.426 239.984 171.802 238.124 171.407C237.423 171.296 237.121 172.283 237.827 172.395V172.395Z" fill="#F9A826"/>
<path d="M238.331 171.467C240.122 173.022 241.051 175.097 242.454 176.918C243.536 178.316 244.842 179.555 246.327 180.593C249.617 182.894 253.629 184.153 257.762 184.181C257.907 184.176 258.044 184.12 258.144 184.025C258.245 183.929 258.301 183.802 258.301 183.669C258.301 183.536 258.245 183.408 258.144 183.312C258.044 183.217 257.907 183.161 257.762 183.156C253.492 183.128 249.372 181.704 246.138 179.139C243.143 176.748 241.952 173.203 239.118 170.743C238.597 170.291 237.808 171.014 238.331 171.467V171.467Z" fill="#F9A826"/>
<path d="M205.33 317.389C213.531 317.389 220.179 313.873 220.179 309.536C220.179 305.199 213.531 301.683 205.33 301.683C197.129 301.683 190.48 305.199 190.48 309.536C190.48 313.873 197.129 317.389 205.33 317.389Z" fill="#3F3D56"/>
<path d="M255.817 317.389C264.018 317.389 270.667 313.873 270.667 309.536C270.667 305.199 264.018 301.683 255.817 301.683C247.616 301.683 240.968 305.199 240.968 309.536C240.968 313.873 247.616 317.389 255.817 317.389Z" fill="#3F3D56"/>
<path d="M229.089 178.424C235.854 178.424 241.339 175.52 241.339 171.937C241.339 168.354 235.854 165.45 229.089 165.45C222.323 165.45 216.838 168.354 216.838 171.937C216.838 175.52 222.323 178.424 229.089 178.424Z" fill="#F9A826"/>
<path d="M4 0V440.478H645.714V0H4ZM86.6906 5.54559C88.735 5.54559 90.7334 6.10315 92.4332 7.14776C94.133 8.19237 95.4578 9.67713 96.2402 11.4143C97.0225 13.1514 97.2272 15.0629 96.8283 16.907C96.4295 18.7511 95.4451 20.445 93.9995 21.7746C92.554 23.1041 90.7122 24.0096 88.7072 24.3764C86.7021 24.7432 84.6238 24.5549 82.7351 23.8354C80.8464 23.1158 79.2321 21.8973 78.0963 20.334C76.9605 18.7706 76.3543 16.9326 76.3543 15.0523C76.3543 12.531 77.4433 10.1129 79.3817 8.33004C81.3202 6.54719 83.9493 5.54559 86.6906 5.54559ZM24.6727 24.559C22.6283 24.559 20.6299 24.0015 18.9301 22.9569C17.2303 21.9123 15.9055 20.4275 15.1231 18.6904C14.3408 16.9533 14.1361 15.0418 14.5349 13.1976C14.9338 11.3535 15.9182 9.65958 17.3638 8.33004C18.8093 7.00051 20.6511 6.09508 22.6561 5.72826C24.6612 5.36144 26.7395 5.5497 28.6282 6.26925C30.5169 6.98879 32.1312 8.20729 33.267 9.77067C34.4028 11.334 35.009 13.1721 35.009 15.0523C35.009 17.5737 33.92 19.9917 31.9815 21.7746C30.0431 23.5574 27.414 24.559 24.6727 24.559ZM45.3453 15.0523C45.3453 13.1721 45.9515 11.334 47.0873 9.77067C48.2231 8.20729 49.8374 6.98879 51.7261 6.26925C53.6148 5.5497 55.6931 5.36144 57.6982 5.72826C59.7032 6.09508 61.545 7.00051 62.9905 8.33004C64.4361 9.65958 65.4205 11.3535 65.8194 13.1976C66.2182 15.0418 66.0135 16.9533 65.2312 18.6904C64.4488 20.4275 63.124 21.9123 61.4242 22.9569C59.7244 24.0015 57.726 24.559 55.6816 24.559C52.9403 24.559 50.3112 23.5574 48.3727 21.7746C46.4343 19.9917 45.3453 17.5737 45.3453 15.0523ZM401.087 316.891H55.6816V80.8072H401.087V316.891Z" fill="#F8F8F8"/>
<path d="M631.932 7.92224H611.259V10.2989H631.932V7.92224Z" fill="white"/>
<path d="M631.932 15.0524H611.259V17.429H631.932V15.0524Z" fill="white"/>
<path d="M631.932 22.1824H611.259V24.5591H631.932V22.1824Z" fill="white"/>
<path d="M611.259 76.8461H455.353V83.9761H611.259V76.8461Z" fill="white"/>
<path d="M611.259 101.405H455.353V108.535H611.259V101.405Z" fill="white"/>
<path d="M611.259 125.964H455.353V133.094H611.259V125.964Z" fill="white"/>
<path d="M611.259 150.523H455.353V157.653H611.259V150.523Z" fill="white"/>
<path d="M611.259 175.082H455.353V182.212H611.259V175.082Z" fill="white"/>
<path d="M611.259 199.641H455.353V206.771H611.259V199.641Z" fill="white"/>
<path d="M611.259 224.2H455.353V231.33H611.259V224.2Z" fill="white"/>
<path d="M611.259 248.759H455.353V255.889H611.259V248.759Z" fill="white"/>
<path d="M611.259 273.318H455.353V280.448H611.259V273.318Z" fill="white"/>
<path d="M611.259 297.877H455.353V305.007H611.259V297.877Z" fill="white"/>
<path d="M76.3543 343.034C82.0629 343.034 86.6906 338.778 86.6906 333.528C86.6906 328.277 82.0629 324.021 76.3543 324.021C70.6457 324.021 66.0179 328.277 66.0179 333.528C66.0179 338.778 70.6457 343.034 76.3543 343.034Z" fill="white"/>
<path d="M111.67 343.034C117.379 343.034 122.006 338.778 122.006 333.528C122.006 328.277 117.379 324.021 111.67 324.021C105.961 324.021 101.334 328.277 101.334 333.528C101.334 338.778 105.961 343.034 111.67 343.034Z" fill="white"/>
<path d="M146.986 343.034C152.694 343.034 157.322 338.778 157.322 333.528C157.322 328.277 152.694 324.021 146.986 324.021C141.277 324.021 136.65 328.277 136.65 333.528C136.65 338.778 141.277 343.034 146.986 343.034Z" fill="white"/>
<path d="M611.259 380.269H455.353V420.673H611.259V380.269Z" fill="#F9A826"/>
<path d="M532.841 348.141L534.584 404.272L553.183 470.024C553.183 470.024 549.115 481.25 552.021 483.923C554.927 486.596 568.295 491.407 568.295 491.407L557.252 351.349L532.841 348.141Z" fill="#19182C"/>
<path d="M573.221 483.649C573.221 483.649 579.854 497.07 570.568 498.29C561.282 499.51 518.39 502.764 521.043 495.85C523.697 488.936 555.976 482.429 555.976 482.429L573.221 483.649Z" fill="#19182C"/>
<path d="M597.938 298.426C597.938 298.426 590.963 333.173 586.313 339.054C581.663 344.934 588.638 387.7 588.638 387.7C588.638 387.7 599.1 449.176 594.45 458.798C589.8 468.42 590.963 465.213 591.544 470.559C592.125 475.904 593.288 480.181 591.544 484.992C589.801 489.803 589.801 489.269 589.219 491.942C588.638 494.614 589.219 509.048 589.219 509.048C589.219 509.048 564.227 517.067 560.158 505.306C560.158 505.306 565.97 497.822 564.227 491.942C562.409 486.024 561.432 479.915 561.321 473.766V462.54L534.584 370.593L528.191 337.45C528.191 337.45 529.935 303.772 536.328 300.564C542.721 297.357 597.938 298.426 597.938 298.426Z" fill="#19182C"/>
<path d="M587.476 506.375C587.476 506.375 596.194 524.016 583.988 525.62C571.783 527.224 515.404 531.5 518.891 522.412C522.379 513.325 564.808 504.771 564.808 504.771L587.476 506.375Z" fill="#19182C"/>
<path d="M576.426 144.491C589.266 144.491 599.675 134.918 599.675 123.108C599.675 111.299 589.266 101.725 576.426 101.725C563.586 101.725 553.177 111.299 553.177 123.108C553.177 134.918 563.586 144.491 576.426 144.491Z" fill="#FFB9B9"/>
<path d="M592.763 132.557L592.331 159.865L563.827 159.953C563.827 159.953 571.061 138.577 567.821 134.106C564.581 129.636 592.763 132.557 592.763 132.557Z" fill="#FFB9B9"/>
<path d="M550.277 174.94C550.277 174.94 570.62 150.884 586.313 161.041C602.006 171.197 607.818 195.253 607.818 195.253L604.331 262.61C604.331 262.61 595.613 272.232 600.844 278.647C606.075 285.062 608.981 283.458 604.912 288.269C600.844 293.08 596.194 296.822 597.938 298.426C599.681 300.03 596.194 301.099 596.194 301.099L534.584 302.703C534.584 302.703 536.328 300.564 531.097 294.149C525.866 287.735 532.259 279.181 531.097 275.974C529.934 272.766 528.772 276.508 528.191 269.024C527.609 261.54 550.277 174.94 550.277 174.94Z" fill="#3F3D56"/>
<path d="M556.089 312.86C556.089 312.86 554.927 326.224 546.209 328.362C542.939 329.164 540.487 327.635 538.699 325.412C537.03 323.28 536.094 320.737 536.013 318.112C535.931 315.486 536.708 312.898 538.243 310.683L540.396 307.514L556.089 312.86Z" fill="#FFB9B9"/>
<path d="M609.853 147.944C609.853 147.944 610.434 158.635 609.853 160.239C609.272 161.843 608.69 163.446 609.853 165.05C611.015 166.654 610.434 171.999 609.272 172.534C608.109 173.069 611.596 177.88 610.434 181.087C609.272 184.295 608.109 185.364 607.528 186.433C606.947 187.502 606.01 189.418 606.01 189.418C606.01 189.418 588.929 155.962 574.979 163.981C561.03 171.999 549.987 174.672 549.987 174.672C549.987 174.672 557.543 137.252 609.853 147.944Z" fill="#3F3D56"/>
<path d="M584.569 172.801C584.569 172.801 603.169 174.405 602.006 196.857C600.844 219.309 603.75 254.591 603.75 254.591C603.75 254.591 571.782 299.495 566.551 302.703C561.32 305.91 560.739 305.375 561.32 308.048C561.902 310.721 562.483 312.859 560.158 314.998C558.785 316.269 557.219 317.349 555.508 318.205C555.508 318.205 536.909 312.325 538.653 306.979C540.396 301.633 548.534 293.08 548.534 293.08C548.534 293.08 562.483 272.232 563.064 269.024C563.645 265.817 563.645 266.352 565.389 264.748C567.133 263.144 571.782 256.729 571.782 253.522V243.365L566.91 189.086C566.688 186.876 566.978 184.647 567.76 182.547C568.542 180.446 569.799 178.522 571.447 176.9C574.213 174.238 578.394 172.12 584.569 172.801Z" fill="#3F3D56"/>
<path d="M561.433 106.618C559.918 107.004 558.322 107.037 556.79 106.714C555.257 106.392 553.836 105.723 552.655 104.769C550.383 102.784 549.619 99.3436 551.236 96.8741C552.631 94.7417 555.347 93.6987 557.93 92.9574C563.629 91.3236 569.563 90.4911 575.533 90.4879C578.379 90.4871 581.35 90.7102 583.785 92.0646C584.99 92.7347 586.011 93.655 587.202 94.3454C589.393 95.615 592.023 96.0369 594.428 96.9188C596.887 97.8381 599.103 99.2325 600.926 101.008C602.748 102.783 604.135 104.897 604.992 107.208C605.544 108.775 605.888 110.398 606.019 112.041C606.412 116.542 605.547 121.06 603.507 125.167C600.264 131.67 594.091 137.139 593.219 144.249C589.896 141.684 588.922 137.381 586.349 134.169C584.433 131.793 581.698 130.086 578.591 129.325C577.722 129.22 576.906 128.884 576.241 128.36C575.794 127.791 575.538 127.114 575.506 126.412L573.911 115.849C573.586 113.699 573.148 111.349 571.354 109.939C570.229 109.169 568.925 108.648 567.545 108.419C564.281 107.672 560.956 107.173 557.603 106.928" fill="#19182C"/>
<path opacity="0.1" d="M600.923 262.227L568.295 301.171C568.295 301.171 598.339 278.072 600.923 262.227Z" fill="black"/>
<path opacity="0.1" d="M569.605 219.11L569.914 255.889L550.964 282.033L566.469 252.72L569.605 219.11Z" fill="black"/>
</g>
<defs>
<filter id="filter0_d" x="0" y="0" width="679" height="538" filterUnits="userSpaceOnUse" color-interpolation-filters="sRGB">
<feFlood flood-opacity="0" result="BackgroundImageFix"/>
<feColorMatrix in="SourceAlpha" type="matrix" values="0 0 0 0 0 0 0 0 0 0 0 0 0 0 0 0 0 0 127 0"/>
<feOffset dy="4"/>
<feGaussianBlur stdDeviation="2"/>
<feColorMatrix type="matrix" values="0 0 0 0 0 0 0 0 0 0 0 0 0 0 0 0 0 0 0.25 0"/>
<feBlend mode="normal" in2="BackgroundImageFix" result="effect1_dropShadow"/>
<feBlend mode="normal" in="SourceGraphic" in2="effect1_dropShadow" result="shape"/>
</filter>
</defs>
</svg>
