<svg width="707" height="516" viewBox="0 0 707 516" fill="none" xmlns="http://www.w3.org/2000/svg">
<path opacity="0.1" d="M634.871 438.24C629.6 441.023 624.077 443.426 618.636 445.785C598.507 454.482 578.067 463.27 556.45 466.258C515.829 471.831 473.919 456.666 434.017 466.129C400.591 474.03 372.948 498.241 340.293 509.024C325.109 514.036 309.311 516 293.372 516H291.314C289.352 516 287.397 515.924 285.436 515.848C269.274 515.227 253.047 512.815 237.204 509.653C187.181 499.796 136.27 481.726 98.025 448.461C209.383 427.617 438.769 395.633 634.871 438.24Z" fill="#252223"/>
<path opacity="0.3" d="M673.686 188.808V140.279H645.554V188.808H612.24V113.74H587.809V57.6282H567.821V0H526.363V57.6282H506.375V113.74H482.685V46.2542H469.359V12.1323H461.216V46.2542H413.836V261.602H377.56V238.854H355.351V261.602H319.075V188.808H253.928V140.279H225.796V188.808H224.315V282.075H194.703V227.48H159.168V282.075H129.555V113.74H106.605V57.6282H22.2094V113.74H0V410.222H129.555H224.315H319.075H413.836H482.685H612.24H707V188.808H673.686Z" fill="#F9A826"/>
<path opacity="0.4" d="M45.1592 131.18H14.066V149.378H45.1592V131.18Z" fill="white"/>
<path opacity="0.4" d="M83.6555 149.378H114.749V131.18H83.6555V149.378Z" fill="white"/>
<path opacity="0.4" d="M45.1592 166.818H14.066V185.017H45.1592V166.818Z" fill="white"/>
<path opacity="0.4" d="M83.6555 185.017H114.749V166.818H83.6555V185.017Z" fill="white"/>
<path opacity="0.4" d="M45.1592 202.457H14.066V220.655H45.1592V202.457Z" fill="white"/>
<path opacity="0.4" d="M83.6555 220.655H114.749V202.457H83.6555V220.655Z" fill="white"/>
<path opacity="0.4" d="M45.1592 238.095H14.066V256.294H45.1592V238.095Z" fill="white"/>
<path opacity="0.4" d="M83.6555 256.294H114.749V238.096H83.6555V256.294Z" fill="white"/>
<path opacity="0.4" d="M45.1592 273.734H14.066V291.932H45.1592V273.734Z" fill="white"/>
<path opacity="0.4" d="M83.6555 291.932H114.749V273.734H83.6555V291.932Z" fill="white"/>
<path opacity="0.4" d="M45.1592 309.373H14.066V327.571H45.1592V309.373Z" fill="white"/>
<path opacity="0.4" d="M83.6555 327.571H114.749V309.373H83.6555V327.571Z" fill="white"/>
<path opacity="0.4" d="M45.1592 345.011H14.066V363.209H45.1592V345.011Z" fill="white"/>
<path opacity="0.4" d="M83.6555 363.209H114.749V345.011H83.6555V363.209Z" fill="white"/>
<path opacity="0.4" d="M213.21 300.273H140.66V309.372H213.21V300.273Z" fill="white"/>
<path opacity="0.4" d="M213.21 313.922H140.66V323.021H213.21V313.922Z" fill="white"/>
<path opacity="0.4" d="M213.21 327.571H140.66V336.67H213.21V327.571Z" fill="white"/>
<path opacity="0.4" d="M402.731 304.823H330.18V313.922H402.731V304.823Z" fill="white"/>
<path opacity="0.4" d="M402.731 318.472H330.18V327.571H402.731V318.472Z" fill="white"/>
<path opacity="0.4" d="M402.731 332.12H330.18V341.22H402.731V332.12Z" fill="white"/>
<path opacity="0.4" d="M213.21 341.22H140.66V350.319H213.21V341.22Z" fill="white"/>
<path opacity="0.4" d="M213.21 354.868H140.66V363.968H213.21V354.868Z" fill="white"/>
<path opacity="0.4" d="M213.21 368.517H140.66V377.617H213.21V368.517Z" fill="white"/>
<path opacity="0.4" d="M259.85 206.248H239.862V232.788H259.85V206.248Z" fill="white"/>
<path opacity="0.4" d="M283.54 232.788H303.529V206.248H283.54V232.788Z" fill="white"/>
<path opacity="0.4" d="M259.85 248.711H239.862V275.25H259.85V248.711Z" fill="white"/>
<path opacity="0.4" d="M283.54 275.25H303.529V248.711H283.54V275.25Z" fill="white"/>
<path opacity="0.4" d="M259.85 291.174H239.862V317.713H259.85V291.174Z" fill="white"/>
<path opacity="0.4" d="M283.54 317.713H303.529V291.174H283.54V317.713Z" fill="white"/>
<path opacity="0.4" d="M259.85 333.637H239.862V360.176H259.85V333.637Z" fill="white"/>
<path opacity="0.4" d="M283.54 360.176H303.529V333.637H283.54V360.176Z" fill="white"/>
<path opacity="0.4" d="M440.487 63.6943H413.836V98.5746H440.487V63.6943Z" fill="white"/>
<path opacity="0.4" d="M440.487 113.74H413.836V148.62H440.487V113.74Z" fill="white"/>
<path opacity="0.4" d="M440.487 163.785H413.836V198.666H440.487V163.785Z" fill="white"/>
<path opacity="0.4" d="M440.487 213.831H413.836V248.711H440.487V213.831Z" fill="white"/>
<path opacity="0.4" d="M440.487 263.877H413.836V298.757H440.487V263.877Z" fill="white"/>
<path opacity="0.4" d="M440.487 313.922H413.836V348.802H440.487V313.922Z" fill="white"/>
<path opacity="0.4" d="M597.063 134.971H497.861V164.544H597.063V134.971Z" fill="white"/>
<path opacity="0.4" d="M597.434 198.666H498.231V228.238H597.434V198.666Z" fill="white"/>
<path opacity="0.4" d="M597.804 262.36H498.602V291.932H597.804V262.36Z" fill="white"/>
<path opacity="0.4" d="M598.174 326.054H498.972V355.627H598.174V326.054Z" fill="white"/>
<path opacity="0.4" d="M35.5351 73.5518H22.2094V102.366H35.5351V73.5518Z" fill="white"/>
<path opacity="0.4" d="M707 206.248H673.686V250.228H707V206.248Z" fill="white"/>
<path opacity="0.4" d="M707 269.943H673.686V313.922H707V269.943Z" fill="white"/>
<path opacity="0.4" d="M707 333.637H673.686V377.616H707V333.637Z" fill="white"/>
<path d="M36.7714 363.626C36.7714 363.626 -21.5135 399.644 85.9283 455.096C85.9283 455.096 109.618 410.085 83.426 373.385C78.3459 366.23 70.8794 361.231 62.4416 359.338C54.0038 357.444 45.181 358.787 37.645 363.111L36.7714 363.626Z" fill="#F9A826"/>
<path d="M37.4451 362.868C37.4451 362.868 87.3201 401.957 85.9283 455.096" stroke="#535461" stroke-miterlimit="10"/>
<path d="M88.6378 457.143C88.6378 457.143 70.3743 393.631 92.0655 346.884C101.164 327.268 104.184 305.24 99.9794 283.948C97.9711 273.838 95.0593 263.939 91.2807 254.375" stroke="#535461" stroke-width="2" stroke-miterlimit="10"/>
<path d="M104.754 224.871C104.754 232.651 90.9994 255.202 90.9994 255.202C90.9994 255.202 77.237 232.628 77.237 224.871C77.1944 222.993 77.5189 221.125 78.1912 219.377C78.8635 217.629 79.8702 216.037 81.152 214.693C82.4338 213.349 83.965 212.282 85.6554 211.553C87.3459 210.824 89.1615 210.448 90.9957 210.448C92.8299 210.448 94.6455 210.824 96.336 211.553C98.0265 212.282 99.5576 213.349 100.839 214.693C102.121 216.037 103.128 217.629 103.8 219.377C104.473 221.125 104.797 222.993 104.754 224.871Z" fill="#F9A826"/>
<path d="M127.527 267.986C123.396 274.523 99.8684 285.806 99.8684 285.806C99.8684 285.806 100.29 259.198 104.421 252.669C106.428 249.586 109.539 247.435 113.082 246.683C116.625 245.932 120.314 246.639 123.352 248.653C126.389 250.666 128.53 253.824 129.311 257.442C130.093 261.061 129.452 264.849 127.527 267.986Z" fill="#F9A826"/>
<path d="M126.527 341.667C119.746 345.17 93.8718 342.744 93.8718 342.744C93.8718 342.744 107.353 319.996 114.142 316.493C117.395 314.866 121.142 314.618 124.573 315.801C128.004 316.985 130.841 319.505 132.47 322.816C134.099 326.127 134.388 329.963 133.276 333.491C132.164 337.019 129.739 339.957 126.527 341.667Z" fill="#F9A826"/>
<path d="M113.52 397.24C107.412 401.866 81.516 403.959 81.516 403.959C81.516 403.959 91.0438 379.201 97.1588 374.576C100.098 372.44 103.737 371.57 107.295 372.153C110.853 372.735 114.046 374.724 116.189 377.692C118.331 380.66 119.251 384.369 118.752 388.024C118.253 391.68 116.375 394.989 113.52 397.24Z" fill="#F9A826"/>
<path d="M70.9739 287.315C76.4226 292.736 101.823 298.355 101.823 298.355C101.823 298.355 95.6042 272.521 90.148 267.099C88.8521 265.81 87.3209 264.794 85.6418 264.111C83.9627 263.427 82.1687 263.089 80.3621 263.116C78.5555 263.143 76.7717 263.534 75.1126 264.267C73.4535 265 71.9516 266.06 70.6926 267.387C69.4336 268.715 68.4422 270.283 67.775 272.003C67.1077 273.723 66.7778 275.56 66.8039 277.411C66.83 279.261 67.2117 281.088 67.9272 282.787C68.6427 284.487 69.678 286.025 70.9739 287.315Z" fill="#F9A826"/>
<path d="M56.5674 352.503C63.3487 356.013 89.2226 353.587 89.2226 353.587C89.2226 353.587 75.7415 330.839 68.9602 327.336C67.3427 326.458 65.5705 325.92 63.7475 325.753C61.9244 325.586 60.087 325.792 58.3429 326.361C56.5989 326.93 54.9831 327.85 53.5902 329.066C52.1973 330.282 51.0553 331.771 50.2311 333.445C49.4068 335.119 48.9168 336.944 48.7897 338.815C48.6627 340.685 48.9012 342.562 49.4913 344.337C50.0813 346.112 51.0111 347.748 52.2261 349.15C53.4411 350.552 54.917 351.692 56.5674 352.503Z" fill="#F9A826"/>
<path d="M51.0521 417.835C57.1597 422.46 83.0632 424.553 83.0632 424.553C83.0632 424.553 73.528 399.796 67.413 395.17C64.4742 393.035 60.8349 392.165 57.2767 392.747C53.7186 393.33 50.5254 395.319 48.3832 398.286C46.2409 401.254 45.3204 404.964 45.8195 408.619C46.3185 412.274 48.1972 415.583 51.0521 417.835Z" fill="#F9A826"/>
<path opacity="0.25" d="M104.754 224.871C104.754 232.651 90.9994 255.202 90.9994 255.202C90.9994 255.202 77.237 232.628 77.237 224.871C77.1944 222.993 77.5189 221.125 78.1912 219.377C78.8635 217.629 79.8702 216.037 81.152 214.693C82.4338 213.349 83.965 212.282 85.6554 211.553C87.3459 210.824 89.1615 210.448 90.9957 210.448C92.8299 210.448 94.6455 210.824 96.336 211.553C98.0265 212.282 99.5576 213.349 100.839 214.693C102.121 216.037 103.128 217.629 103.8 219.377C104.473 221.125 104.797 222.993 104.754 224.871Z" fill="black"/>
<path opacity="0.25" d="M127.527 267.986C123.396 274.523 99.8684 285.806 99.8684 285.806C99.8684 285.806 100.29 259.198 104.421 252.669C106.428 249.586 109.539 247.435 113.082 246.683C116.625 245.932 120.314 246.639 123.352 248.653C126.389 250.666 128.53 253.824 129.311 257.442C130.093 261.061 129.452 264.849 127.527 267.986Z" fill="black"/>
<path opacity="0.25" d="M126.527 341.667C119.746 345.17 93.8718 342.744 93.8718 342.744C93.8718 342.744 107.353 319.996 114.142 316.493C117.395 314.866 121.142 314.618 124.573 315.801C128.004 316.985 130.841 319.505 132.47 322.816C134.099 326.127 134.388 329.963 133.276 333.491C132.164 337.019 129.739 339.957 126.527 341.667Z" fill="black"/>
<path opacity="0.25" d="M113.52 397.24C107.412 401.866 81.516 403.959 81.516 403.959C81.516 403.959 91.0438 379.201 97.1588 374.576C100.098 372.44 103.737 371.57 107.295 372.153C110.853 372.735 114.046 374.724 116.189 377.692C118.331 380.66 119.251 384.369 118.752 388.024C118.253 391.68 116.375 394.989 113.52 397.24Z" fill="black"/>
<path opacity="0.25" d="M70.9739 287.315C76.4226 292.736 101.823 298.355 101.823 298.355C101.823 298.355 95.6042 272.521 90.148 267.099C88.8521 265.81 87.3209 264.794 85.6418 264.111C83.9627 263.427 82.1687 263.089 80.3621 263.116C78.5555 263.143 76.7717 263.534 75.1126 264.267C73.4535 265 71.9516 266.06 70.6926 267.387C69.4336 268.715 68.4422 270.283 67.775 272.003C67.1077 273.723 66.7778 275.56 66.8039 277.411C66.83 279.261 67.2117 281.088 67.9272 282.787C68.6427 284.487 69.678 286.025 70.9739 287.315Z" fill="black"/>
<path opacity="0.25" d="M56.5674 352.503C63.3487 356.013 89.2226 353.587 89.2226 353.587C89.2226 353.587 75.7415 330.839 68.9602 327.336C67.3427 326.458 65.5705 325.92 63.7475 325.753C61.9244 325.586 60.087 325.792 58.3429 326.361C56.5989 326.93 54.9831 327.85 53.5902 329.066C52.1973 330.282 51.0553 331.771 50.2311 333.445C49.4068 335.119 48.9168 336.944 48.7897 338.815C48.6627 340.685 48.9012 342.562 49.4913 344.337C50.0813 346.112 51.0111 347.748 52.2261 349.15C53.4411 350.552 54.917 351.692 56.5674 352.503Z" fill="black"/>
<path opacity="0.25" d="M51.0521 417.835C57.1597 422.46 83.0632 424.553 83.0632 424.553C83.0632 424.553 73.528 399.796 67.413 395.17C64.4742 393.035 60.8349 392.165 57.2767 392.747C53.7186 393.33 50.5254 395.319 48.3832 398.286C46.2409 401.254 45.3204 404.964 45.8195 408.619C46.3185 412.274 48.1972 415.583 51.0521 417.835Z" fill="black"/>
<path d="M658.717 440.742C658.717 440.742 640.453 377.23 662.144 330.483C671.243 310.866 674.271 288.839 670.066 267.547C668.05 257.439 665.139 247.54 661.367 237.974" stroke="#535461" stroke-width="2" stroke-miterlimit="10"/>
<path d="M674.863 208.47C674.863 216.25 661.101 238.801 661.101 238.801C661.101 238.801 647.338 216.227 647.338 208.47C647.338 204.732 648.788 201.146 651.369 198.503C653.95 195.859 657.451 194.374 661.101 194.374C664.751 194.374 668.251 195.859 670.832 198.503C673.413 201.146 674.863 204.732 674.863 208.47Z" fill="#F9A826"/>
<path d="M697.605 251.585C693.474 258.121 669.947 269.404 669.947 269.404C669.947 269.404 670.377 242.797 674.508 236.268C676.491 233.131 679.609 230.929 683.177 230.147C686.745 229.365 690.471 230.066 693.534 232.098C696.597 234.129 698.746 237.323 699.51 240.978C700.274 244.632 699.589 248.448 697.605 251.585Z" fill="#F9A826"/>
<path d="M696.613 325.266C689.825 328.769 663.951 326.343 663.951 326.343C663.951 326.343 677.439 303.595 684.221 300.091C687.48 298.408 691.258 298.12 694.725 299.29C698.192 300.461 701.063 302.994 702.706 306.332C704.35 309.67 704.631 313.541 703.488 317.091C702.346 320.642 699.873 323.583 696.613 325.266Z" fill="#F9A826"/>
<path d="M683.606 380.839C677.491 385.465 651.595 387.557 651.595 387.557C651.595 387.557 661.13 362.8 667.238 358.174C670.174 355.987 673.835 355.076 677.424 355.641C681.013 356.206 684.239 358.201 686.398 361.191C688.557 364.181 689.475 367.924 688.952 371.604C688.429 375.284 686.508 378.604 683.606 380.839Z" fill="#F9A826"/>
<path d="M641.053 270.89C646.509 276.312 671.902 281.931 671.902 281.931C671.902 281.931 665.683 256.097 660.234 250.675C658.945 249.355 657.411 248.31 655.724 247.602C654.037 246.894 652.229 246.536 650.406 246.55C648.582 246.564 646.78 246.948 645.103 247.682C643.426 248.415 641.907 249.482 640.637 250.822C639.366 252.161 638.367 253.746 637.7 255.483C637.032 257.221 636.708 259.078 636.747 260.945C636.785 262.812 637.186 264.653 637.925 266.36C638.664 268.068 639.728 269.608 641.053 270.89Z" fill="#F9A826"/>
<path d="M626.676 336.101C633.465 339.612 659.339 337.186 659.339 337.186C659.339 337.186 645.857 314.438 639.069 310.935C637.451 310.057 635.679 309.519 633.856 309.352C632.033 309.184 630.196 309.391 628.451 309.96C626.707 310.529 625.092 311.448 623.699 312.665C622.306 313.881 621.164 315.37 620.34 317.044C619.515 318.717 619.025 320.543 618.898 322.413C618.771 324.283 619.01 326.161 619.6 327.936C620.19 329.71 621.12 331.347 622.335 332.749C623.55 334.151 625.026 335.291 626.676 336.101Z" fill="#F9A826"/>
<path d="M621.131 401.434C627.246 406.059 653.142 408.152 653.142 408.152C653.142 408.152 643.607 383.402 637.499 378.769C634.563 376.581 630.902 375.671 627.313 376.236C623.724 376.801 620.498 378.795 618.339 381.785C616.18 384.775 615.262 388.518 615.785 392.198C616.308 395.879 618.229 399.198 621.131 401.434Z" fill="#F9A826"/>
<path d="M576.335 434.562C576.335 434.562 566.518 400.44 578.178 375.311C583.128 364.806 584.621 352.941 582.435 341.493C581.351 336.065 579.785 330.75 577.756 325.615" stroke="#535461" stroke-width="2" stroke-miterlimit="10"/>
<path d="M585.011 309.736C585.011 313.922 577.608 326.054 577.608 326.054C577.608 326.054 570.205 313.922 570.205 309.736C570.205 307.725 570.985 305.797 572.373 304.375C573.761 302.953 575.644 302.154 577.608 302.154C579.571 302.154 581.454 302.953 582.843 304.375C584.231 305.797 585.011 307.725 585.011 309.736Z" fill="#F9A826"/>
<path d="M597.234 332.909C595.013 336.42 582.368 342.486 582.368 342.486C582.368 342.486 582.598 328.185 584.819 324.674C585.926 323.086 587.588 321.997 589.46 321.632C591.331 321.267 593.268 321.656 594.867 322.717C596.466 323.777 597.605 325.429 598.045 327.327C598.486 329.225 598.195 331.225 597.234 332.909Z" fill="#F9A826"/>
<path d="M596.701 372.498C593.051 374.379 579.148 373.074 579.148 373.074C579.148 373.074 586.395 360.851 590.038 358.971C591.777 358.166 593.753 358.08 595.552 358.731C597.352 359.382 598.836 360.72 599.696 362.465C600.555 364.211 600.724 366.229 600.166 368.098C599.608 369.967 598.366 371.544 596.701 372.498Z" fill="#F9A826"/>
<path d="M589.705 402.366C586.425 404.853 572.507 405.976 572.507 405.976C572.507 405.976 577.63 392.676 580.917 390.188C581.692 389.532 582.59 389.044 583.556 388.755C584.522 388.466 585.535 388.381 586.533 388.506C587.532 388.631 588.495 388.963 589.364 389.483C590.233 390.002 590.99 390.697 591.588 391.526C592.186 392.354 592.612 393.299 592.842 394.302C593.072 395.306 593.099 396.346 592.923 397.361C592.747 398.375 592.37 399.342 591.817 400.203C591.264 401.064 590.545 401.8 589.705 402.366Z" fill="#F9A826"/>
<path d="M566.844 343.297C569.805 346.209 583.419 349.227 583.419 349.227C583.419 349.227 580.08 335.343 577.149 332.431C576.464 331.683 575.638 331.084 574.721 330.672C573.804 330.26 572.815 330.043 571.813 330.034C570.812 330.024 569.819 330.223 568.895 330.618C567.97 331.014 567.134 331.597 566.436 332.332C565.738 333.068 565.194 333.941 564.835 334.899C564.476 335.857 564.311 336.879 564.349 337.904C564.387 338.929 564.628 339.936 565.056 340.863C565.485 341.79 566.093 342.618 566.844 343.297Z" fill="#F9A826"/>
<path d="M559.1 378.329C562.75 380.21 576.653 378.913 576.653 378.913C576.653 378.913 569.405 366.69 565.755 364.802C564.016 363.997 562.041 363.911 560.241 364.562C558.442 365.213 556.957 366.551 556.098 368.296C555.238 370.042 555.07 372.06 555.628 373.929C556.186 375.798 557.427 377.375 559.093 378.329H559.1Z" fill="#F9A826"/>
<path d="M556.139 413.445C559.418 415.932 573.336 417.054 573.336 417.054C573.336 417.054 568.191 403.746 564.934 401.259C563.352 400.157 561.415 399.726 559.529 400.054C557.643 400.383 555.955 401.446 554.818 403.022C553.681 404.597 553.183 406.563 553.429 408.506C553.676 410.449 554.647 412.219 556.139 413.445Z" fill="#F9A826"/>
<path opacity="0.1" d="M195.946 36.1542H190.853C191.335 36.1766 191.816 36.0989 192.268 35.9255C192.719 35.7522 193.132 35.4869 193.481 35.1457C193.829 34.8044 194.107 34.3943 194.296 33.9401C194.486 33.4859 194.584 32.9971 194.584 32.5031C194.584 32.0091 194.486 31.5203 194.296 31.0661C194.107 30.6119 193.829 30.2018 193.481 29.8606C193.132 29.5193 192.719 29.254 192.268 29.0807C191.816 28.9073 191.335 28.8296 190.853 28.8521H149.595C149.114 28.8296 148.632 28.9073 148.181 29.0807C147.729 29.254 147.316 29.5193 146.968 29.8606C146.619 30.2018 146.341 30.6119 146.152 31.0661C145.962 31.5203 145.864 32.0091 145.864 32.5031C145.864 32.9971 145.962 33.4859 146.152 33.9401C146.341 34.3943 146.619 34.8044 146.968 35.1457C147.316 35.4869 147.729 35.7522 148.181 35.9255C148.632 36.0989 149.114 36.1766 149.595 36.1542H154.689C153.742 36.1542 152.835 36.5392 152.165 37.2246C151.496 37.9101 151.12 38.8397 151.12 39.809C151.12 40.7783 151.496 41.7079 152.165 42.3934C152.835 43.0788 153.742 43.4638 154.689 43.4638H147.559C147.078 43.4413 146.596 43.5191 146.145 43.6924C145.693 43.8658 145.281 44.1311 144.932 44.4723C144.583 44.8136 144.306 45.2237 144.116 45.6779C143.926 46.1321 143.829 46.6209 143.829 47.1149C143.829 47.6089 143.926 48.0977 144.116 48.5519C144.306 49.0061 144.583 49.4162 144.932 49.7574C145.281 50.0987 145.693 50.364 146.145 50.5373C146.596 50.7107 147.078 50.7884 147.559 50.7659H188.817C189.299 50.7884 189.78 50.7107 190.232 50.5373C190.683 50.364 191.096 50.0987 191.445 49.7574C191.793 49.4162 192.071 49.0061 192.261 48.5519C192.45 48.0977 192.548 47.6089 192.548 47.1149C192.548 46.6209 192.45 46.1321 192.261 45.6779C192.071 45.2237 191.793 44.8136 191.445 44.4723C191.096 44.1311 190.683 43.8658 190.232 43.6924C189.78 43.5191 189.299 43.4413 188.817 43.4638H195.946C196.893 43.4638 197.8 43.0788 198.47 42.3934C199.139 41.7079 199.515 40.7783 199.515 39.809C199.515 38.8397 199.139 37.9101 198.47 37.2246C197.8 36.5392 196.893 36.1542 195.946 36.1542Z" fill="#252223"/>
<path opacity="0.1" d="M378.064 127.904H372.97C373.452 127.927 373.933 127.849 374.385 127.676C374.836 127.502 375.249 127.237 375.598 126.896C375.947 126.555 376.224 126.144 376.414 125.69C376.603 125.236 376.701 124.747 376.701 124.253C376.701 123.759 376.603 123.27 376.414 122.816C376.224 122.362 375.947 121.952 375.598 121.611C375.249 121.269 374.836 121.004 374.385 120.831C373.933 120.657 373.452 120.58 372.97 120.602H331.713C331.231 120.58 330.75 120.657 330.298 120.831C329.846 121.004 329.434 121.269 329.085 121.611C328.736 121.952 328.459 122.362 328.269 122.816C328.08 123.27 327.982 123.759 327.982 124.253C327.982 124.747 328.08 125.236 328.269 125.69C328.459 126.144 328.736 126.555 329.085 126.896C329.434 127.237 329.846 127.502 330.298 127.676C330.75 127.849 331.231 127.927 331.713 127.904H336.806C335.86 127.904 334.952 128.289 334.283 128.975C333.614 129.66 333.238 130.59 333.238 131.559C333.238 132.528 333.614 133.458 334.283 134.143C334.952 134.829 335.86 135.214 336.806 135.214H329.677C329.195 135.191 328.714 135.269 328.262 135.443C327.81 135.616 327.398 135.881 327.049 136.222C326.7 136.564 326.423 136.974 326.233 137.428C326.044 137.882 325.946 138.371 325.946 138.865C325.946 139.359 326.044 139.848 326.233 140.302C326.423 140.756 326.7 141.166 327.049 141.508C327.398 141.849 327.81 142.114 328.262 142.287C328.714 142.461 329.195 142.539 329.677 142.516H370.934C371.416 142.539 371.897 142.461 372.349 142.287C372.801 142.114 373.213 141.849 373.562 141.508C373.911 141.166 374.188 140.756 374.378 140.302C374.567 139.848 374.665 139.359 374.665 138.865C374.665 138.371 374.567 137.882 374.378 137.428C374.188 136.974 373.911 136.564 373.562 136.222C373.213 135.881 372.801 135.616 372.349 135.443C371.897 135.269 371.416 135.191 370.934 135.214H378.064C378.532 135.214 378.996 135.119 379.429 134.936C379.862 134.752 380.255 134.483 380.587 134.143C380.918 133.804 381.181 133.401 381.36 132.958C381.54 132.514 381.632 132.039 381.632 131.559C381.632 131.079 381.54 130.604 381.36 130.16C381.181 129.717 380.918 129.314 380.587 128.975C380.255 128.635 379.862 128.366 379.429 128.182C378.996 127.999 378.532 127.904 378.064 127.904Z" fill="#252223"/>
<path opacity="0.1" d="M688.255 8.09825H683.162C683.644 8.12074 684.125 8.04298 684.576 7.86964C685.028 7.6963 685.441 7.43099 685.789 7.08975C686.138 6.7485 686.416 6.3384 686.605 5.88421C686.795 5.43002 686.893 4.94117 686.893 4.4472C686.893 3.95322 686.795 3.46438 686.605 3.01019C686.416 2.556 686.138 2.14589 685.789 1.80465C685.441 1.4634 685.028 1.1981 684.576 1.02476C684.125 0.851424 683.644 0.773656 683.162 0.79615H641.904C641.422 0.773656 640.941 0.851424 640.49 1.02476C640.038 1.1981 639.625 1.4634 639.277 1.80465C638.928 2.14589 638.65 2.556 638.461 3.01019C638.271 3.46438 638.173 3.95322 638.173 4.4472C638.173 4.94117 638.271 5.43002 638.461 5.88421C638.65 6.3384 638.928 6.7485 639.277 7.08975C639.625 7.43099 640.038 7.6963 640.49 7.86964C640.941 8.04298 641.422 8.12074 641.904 8.09825H646.998C646.051 8.09825 645.144 8.48331 644.474 9.16873C643.805 9.85414 643.429 10.7838 643.429 11.7531C643.429 12.7224 643.805 13.652 644.474 14.3375C645.144 15.0229 646.051 15.4079 646.998 15.4079H639.868C639.387 15.3854 638.905 15.4632 638.454 15.6365C638.002 15.8099 637.589 16.0752 637.241 16.4164C636.892 16.7577 636.615 17.1678 636.425 17.622C636.235 18.0762 636.138 18.565 636.138 19.059C636.138 19.553 636.235 20.0418 636.425 20.496C636.615 20.9502 636.892 21.3603 637.241 21.7015C637.589 22.0428 638.002 22.3081 638.454 22.4814C638.905 22.6548 639.387 22.7325 639.868 22.71H681.126C681.608 22.7325 682.089 22.6548 682.541 22.4814C682.992 22.3081 683.405 22.0428 683.754 21.7015C684.102 21.3603 684.38 20.9502 684.569 20.496C684.759 20.0418 684.857 19.553 684.857 19.059C684.857 18.565 684.759 18.0762 684.569 17.622C684.38 17.1678 684.102 16.7577 683.754 16.4164C683.405 16.0752 682.992 15.8099 682.541 15.6365C682.089 15.4632 681.608 15.3854 681.126 15.4079H688.255C689.202 15.4079 690.109 15.0229 690.778 14.3375C691.448 13.652 691.824 12.7224 691.824 11.7531C691.824 10.7838 691.448 9.85414 690.778 9.16873C690.109 8.48331 689.202 8.09825 688.255 8.09825Z" fill="#252223"/>
<path d="M522.292 401.001C522.586 401.001 522.869 400.882 523.077 400.668C523.285 400.455 523.402 400.166 523.402 399.864C523.402 399.562 523.285 399.273 523.077 399.06C522.869 398.846 522.586 398.727 522.292 398.727C521.997 398.727 521.715 398.846 521.506 399.06C521.298 399.273 521.181 399.562 521.181 399.864C521.181 400.166 521.298 400.455 521.506 400.668C521.715 400.882 521.997 401.001 522.292 401.001Z" fill="#535461"/>
<g opacity="0.5">
<path opacity="0.5" d="M386.466 335.919L375.709 284.054H376.812L376.642 283.174H376.953L371.386 255.119C371.386 255.119 371.667 225.812 373.022 214.476C374.014 206.203 375.584 195.663 374.436 186.791C374.595 186.547 374.74 186.293 374.873 186.033C375.348 185.089 375.635 184.058 375.717 183C376.132 180.52 375.807 177.97 374.784 175.683L385.97 168.525C386.222 168.525 386.481 168.578 386.71 168.593C386.71 168.487 386.607 168.32 386.525 168.1C391.817 168.385 397.06 166.931 401.489 163.951C405.918 160.971 409.302 156.62 411.148 151.532C412.133 153.047 413.351 154.388 414.754 155.505C417.767 157.818 422.512 158.334 425.022 155.46C425.936 154.313 426.554 152.949 426.821 151.494C426.969 150.842 427.072 150.175 427.161 149.515C428.583 141.765 425.466 133.773 421.446 126.979C416.419 118.494 409.749 110.813 401.272 105.99C392.796 101.168 382.394 99.439 373.222 102.654C364.049 105.869 354.81 114.597 353.974 124.492C353.559 129.55 354.151 131.893 353.13 136.859C352.619 139.331 353.722 144.146 353.707 146.876C353.618 147.377 353.558 147.884 353.53 148.393C353.382 151.426 354.559 154.292 355.417 157.204C343.321 157.825 311.509 160.335 302.322 169.905C290.892 181.802 262.863 186.056 262.863 186.056L216.187 195.678L199.9 202.76L200.085 203.519L199.759 203.663C199.759 203.663 200.336 205.869 201.166 208.781C197.532 212.149 195.153 216.706 194.436 221.671C193.533 226.82 194.014 233.447 197.197 241.902C197.197 241.902 213.27 272.134 214.38 284.327L234.665 325.797C232.925 329.353 215.542 365.295 212.552 385.411C212.315 386.86 212.154 388.32 212.07 389.787C212.07 389.787 211.959 390.848 211.685 392.615C210.494 400.069 206.725 418.396 197.523 426.964L197.642 427.071L197.375 427.336L197.582 427.518C194.821 432.924 198.811 440.249 198.811 440.249L203.349 461.011L208.428 461.852L213.773 459.623L216.734 465.454C216.734 465.454 239.795 469.245 246.347 469.025C252.899 468.806 240.795 457.432 236.553 454.057C234.198 452.192 232.355 444.526 231.185 438.073C231.803 437.56 232.357 436.972 232.836 436.321C232.836 436.321 230.016 421.156 238.507 400.349C242.127 391.493 246.021 381.309 249.316 372.536C251.085 384.32 252.943 396.459 254.313 404.747C256.304 416.751 256.045 424.075 255.431 428.208C255.317 429.65 254.985 431.064 254.446 432.401C254.473 432.44 254.498 432.48 254.52 432.523C254.481 432.63 254.434 432.734 254.379 432.833C254.424 432.909 254.468 432.977 254.505 433.053C249.871 438.482 254.698 447.339 254.698 447.339L259.236 468.04L264.314 468.881L269.659 466.652L272.621 472.483C272.621 472.483 295.681 476.275 302.233 476.055C308.785 475.835 296.681 464.461 292.431 461.086C289.122 458.455 286.827 444.329 285.976 438.27C286.59 438.21 286.931 438.164 286.931 438.164L286.864 437.747H287.005L284.103 420.368C279.143 415.992 279.831 353.837 279.831 353.837C279.831 353.837 277.248 360.336 277.166 359.812C277.418 358.766 278.351 355.809 280.512 349.508C281.782 345.894 282.722 342.168 283.318 338.376C285.665 323.582 281.29 314.536 281.29 314.536C281.578 311.564 278.521 300.016 274.908 287.716L286.257 265.059C287.836 265.668 289.548 265.812 291.203 265.477L299.798 249.553C299.798 249.553 317.565 238.71 322.651 239.551C327.382 240.31 342.203 236.988 347.933 230.665C348.345 230.202 348.721 229.708 349.058 229.186C353.67 221.944 351.775 266.993 351.775 266.993L349.31 282.598L349.177 283.463L356.528 283.614L373.851 344.473C373.851 344.473 374.939 365.113 394.624 369.7C414.309 374.288 386.466 335.919 386.466 335.919ZM268.142 265.583C267.076 262.216 266.143 259.312 265.44 257.136L269.104 254.209C269.104 254.209 269.563 254.603 270.341 255.232L268.142 265.583Z" fill="url(#paint0_linear)"/>
</g>
<path d="M286.006 431.688C286.006 431.688 288.515 453.345 292.668 456.635C296.822 459.926 308.607 470.974 302.218 471.217C295.83 471.46 273.346 467.744 273.346 467.744L270.437 462.057L265.255 464.226L260.302 463.407L255.86 443.169C255.86 443.169 249.627 431.734 258.399 427.116C267.172 422.498 286.006 431.688 286.006 431.688Z" fill="#3A384D"/>
<path opacity="0.1" d="M264.914 254.14C264.914 254.14 282.348 307.287 281.69 314.112C281.69 314.112 288.078 327.305 281.031 347.817C273.983 368.328 280.29 352.465 280.29 352.465C280.29 352.465 279.624 413.043 284.451 417.312L287.279 434.251C287.279 434.251 260.095 437.557 255.519 428.997C255.519 428.997 259.058 422.65 255.593 401.699C252.129 380.748 245.451 334.585 245.451 334.585L227.358 229.284L264.914 254.14Z" fill="black"/>
<path d="M264.981 253.716C264.981 253.716 282.415 306.893 281.756 313.717C281.756 313.717 288.145 326.911 281.097 347.422C274.049 367.933 280.357 352.07 280.357 352.07C280.357 352.07 279.691 412.656 284.518 416.917L287.346 433.865C287.346 433.865 260.161 437.163 255.586 428.602C255.586 428.602 259.125 422.256 255.66 401.305C252.195 380.354 245.51 334.168 245.51 334.168L227.425 228.86L264.981 253.716Z" fill="#BEC7DE"/>
<path opacity="0.1" d="M231.911 231.62L249.641 334.85C249.641 334.85 256.304 381.036 259.791 401.987C263.278 422.938 259.717 429.285 259.717 429.285C261.05 431.779 264.285 433.258 268.208 434.115C262.7 433.455 257.733 431.916 256.001 428.671C256.001 428.671 259.547 422.324 256.082 401.373C252.617 380.422 245.932 334.236 245.932 334.236L227.839 228.928L231.911 231.62Z" fill="black"/>
<path d="M231.637 424.856C231.637 424.856 234.139 446.513 238.3 449.803C242.46 453.094 254.239 464.142 247.85 464.385C241.461 464.627 218.978 460.912 218.978 460.912L216.068 455.225L210.886 457.401L205.933 456.575L201.491 436.337C201.491 436.337 195.258 424.902 204.023 420.284C212.788 415.666 231.637 424.856 231.637 424.856Z" fill="#3A384D"/>
<path opacity="0.1" d="M264.914 254.14C264.914 254.14 282.348 307.287 281.69 314.112C281.69 314.112 288.078 327.305 281.031 347.817C273.983 368.328 280.29 352.465 280.29 352.465C280.29 352.465 279.624 413.043 284.451 417.312L287.279 434.251C287.279 434.251 260.095 437.557 255.519 428.997C255.519 428.997 259.058 422.65 255.593 401.699C252.129 380.748 245.451 334.585 245.451 334.585L227.358 229.284L264.914 254.14Z" fill="black"/>
<path opacity="0.1" d="M209.664 207.28C209.664 207.28 190.261 214.908 200.699 242.645C200.699 242.645 216.372 272.111 217.46 284.001L237.3 324.568C237.3 324.568 216.142 367.456 215.202 386.807C215.202 386.807 212.374 412.785 200.958 423.461C200.958 423.461 225.515 444.867 234.657 432.507C234.657 432.507 231.911 417.751 240.195 397.445C248.479 377.139 258.303 349.75 258.303 349.75C258.303 349.75 282.06 333.303 266.232 299.47L248.464 224.136L248.176 207.181L234.546 202.328L209.664 207.28Z" fill="black"/>
<path opacity="0.1" d="M208.776 207.56C208.776 207.56 189.372 215.188 199.811 242.926C199.811 242.926 215.476 272.399 216.564 284.289L236.405 324.856C236.405 324.856 215.246 367.736 214.321 387.095C214.321 387.095 211.493 413.065 200.07 423.749C200.07 423.749 224.626 445.155 233.776 432.796C233.776 432.796 231.022 418.032 239.307 397.733C247.591 377.435 257.415 350.008 257.415 350.008C257.415 350.008 281.179 333.561 265.351 299.727L247.583 224.394L247.295 207.439L233.673 202.586L208.776 207.56Z" fill="black"/>
<path d="M208.843 207.143C208.843 207.143 189.439 214.779 199.877 242.509C199.877 242.509 211.389 264.157 215.357 277.829C217.09 283.701 219.319 289.407 222.02 294.882L236.471 324.454C236.471 324.454 215.313 367.342 214.38 386.693C214.38 386.693 211.552 412.671 200.129 423.348C200.129 423.348 224.685 444.753 233.836 432.394C233.836 432.394 231.082 417.638 239.366 397.331C247.65 377.025 257.474 349.606 257.474 349.606C257.474 349.606 281.238 333.159 265.41 299.326L247.642 223.992L247.354 207.037L233.732 202.184L208.843 207.143Z" fill="#BEC7DE"/>
<path opacity="0.1" d="M208.843 207.143L233.754 202.161L237.004 203.321L213.795 207.954C213.795 207.954 194.392 215.583 204.83 243.32C204.83 243.32 216.335 264.968 220.31 278.64C222.042 284.512 224.272 290.218 226.973 295.693L241.431 325.266C241.431 325.266 220.243 368.138 219.333 387.489C219.333 387.489 216.497 413.467 205.082 424.144C205.082 424.144 215.661 433.364 225.514 436.208C214.647 435.98 200.129 423.317 200.129 423.317C211.552 412.641 214.38 386.663 214.38 386.663C215.313 367.312 236.471 324.424 236.471 324.424L222.02 294.852C219.319 289.377 217.09 283.671 215.357 277.798C211.389 264.15 199.877 242.478 199.877 242.478C189.439 214.779 208.843 207.143 208.843 207.143Z" fill="black"/>
<path d="M288.789 261.124L273.339 291.948C273.339 291.948 277.869 333.015 269.215 334.183C260.561 335.351 264.033 289.112 264.033 289.112L272.362 249.735L288.789 261.124Z" fill="#BE7C5E"/>
<path d="M373.237 281.173L384.282 334.585C384.282 334.585 411.393 372.02 392.204 367.547C373.015 363.073 371.956 342.926 371.956 342.926L353.448 277.867L373.237 281.173Z" fill="#BE7C5E"/>
<path d="M384.245 171.141L356.928 188.732L347.178 161.973C347.178 161.973 369.787 163.55 372.422 154.883C375.058 146.216 384.245 171.141 384.245 171.141Z" fill="#BE7C5E"/>
<path d="M370.216 182.264L368.469 174.598L341.544 176.213L330.698 220.807L350.901 221.55L362.213 203.481L368.38 185.859L370.216 182.264Z" fill="#BE7C5E"/>
<path opacity="0.1" d="M360.903 174.219L363.124 161.367C363.124 161.367 313.294 162.004 302.152 173.597C291.01 185.191 263.692 189.347 263.692 189.347L218.193 198.719L202.283 205.627C202.283 205.627 206.77 222.839 208.695 224.03C210.619 225.22 232.103 207.09 232.103 207.09L240.247 209.304L213.729 237.86L262.671 287.148L263.574 259.987L269.845 254.967C269.845 254.967 284.747 267.857 291.395 265.901L299.775 250.379C299.775 250.379 317.099 239.809 322.051 240.628C326.664 241.386 341.115 238.133 346.697 231.969C347.088 231.537 347.445 231.073 347.763 230.581C352.264 223.522 350.413 267.433 350.413 267.433L347.881 283.485L374.88 284.054L369.461 256.711C369.461 256.711 369.735 228.147 371.053 217.092C372.371 206.036 374.754 190.833 369.92 181.354L360.415 190.62L343.876 217.812L350.154 194.139L360.903 174.219Z" fill="black"/>
<path d="M361.044 173.37L358.682 160.184C358.682 160.184 313.456 161.154 302.315 172.748C291.173 184.342 263.818 188.49 263.818 188.49L218.319 197.87L202.476 204.785C202.476 204.785 206.962 221.998 208.887 223.18C210.812 224.363 232.303 206.248 232.303 206.248L240.447 208.463L213.929 237.019L262.871 286.306L263.774 259.137L270.067 254.11C270.067 254.11 284.969 267.001 291.617 265.052L299.997 249.53C299.997 249.53 317.225 238.96 322.207 239.802C326.819 240.56 341.27 237.299 346.852 231.135C347.244 230.703 347.6 230.239 347.918 229.747C352.419 222.688 350.568 266.606 350.568 266.606L348.036 282.659L375.036 283.228L369.617 255.884C369.617 255.884 369.891 227.313 371.208 216.265C372.526 205.217 374.91 189.999 370.076 180.528L360.57 189.756L344.009 216.925L350.287 193.252L361.044 173.37Z" fill="#7FAFF2"/>
<path opacity="0.1" d="M304.003 190.158C304.003 190.158 277.048 213.444 274.227 225.986L304.003 190.158Z" fill="black"/>
<path opacity="0.1" d="M333.43 210.229C333.43 210.229 312.701 226.304 309 236.526L333.43 210.229Z" fill="black"/>
<path opacity="0.1" d="M272.895 234.433C272.895 234.433 270.948 244.078 270.563 249.219L272.895 234.433Z" fill="black"/>
<path opacity="0.1" d="M263.041 256.643C263.041 256.643 231.992 228.094 227.647 228.678L263.041 256.643Z" fill="black"/>
<path opacity="0.1" d="M372.748 155.369C375.273 147.073 383.801 169.563 384.519 171.497C383.708 171.45 382.9 171.359 382.098 171.224C378.861 170.693 375.762 169.493 372.993 167.695C370.223 165.897 367.84 163.54 365.989 160.767C369.313 159.698 371.963 158.007 372.748 155.369Z" fill="black"/>
<path d="M385.637 171.057C399.023 171.057 409.875 159.942 409.875 146.232C409.875 132.521 399.023 121.406 385.637 121.406C372.251 121.406 361.399 132.521 361.399 146.232C361.399 159.942 372.251 171.057 385.637 171.057Z" fill="#BE7C5E"/>
<path opacity="0.1" d="M405.322 149.811C407.225 153.018 408.957 156.499 411.896 158.743C414.835 160.987 419.462 161.495 421.905 158.697C422.793 157.578 423.394 156.249 423.652 154.83C425.444 147.013 422.312 138.907 418.248 132.014C413.347 123.741 406.84 116.257 398.585 111.541C390.331 106.825 380.181 105.149 371.238 108.288C362.295 111.427 354.951 119.814 354.211 129.459C353.804 134.387 355.018 139.415 354.018 144.26C353.5 146.785 352.382 149.189 352.256 151.767C352.019 156.552 355.218 161.003 354.929 165.787C354.751 168.737 353.278 171.414 352.375 174.227C350.154 181.006 351.353 188.384 350.894 195.511C350.435 202.639 347.392 210.631 340.73 212.739C348.096 216.53 358.253 212.542 361.251 204.671C362.162 202.267 362.495 199.598 363.879 197.445C366.219 193.805 371.082 192.365 373.044 188.497C375.006 184.63 373.303 179.921 371.156 176.168C369.01 172.415 366.33 168.638 366.285 164.294C366.301 162.172 366.947 160.106 368.137 158.369C369.327 156.633 371.005 155.308 372.948 154.573C374.969 153.852 377.153 153.814 379.278 153.572C384.549 152.878 389.583 150.911 393.966 147.832C399.659 144.017 401.184 142.835 405.322 149.811Z" fill="black"/>
<path d="M405.477 148.726C407.38 151.941 409.112 155.414 412.051 157.666C414.99 159.918 419.617 160.419 422.06 157.621C422.947 156.5 423.548 155.171 423.808 153.754C425.599 145.936 422.468 137.83 418.403 130.937C413.502 122.657 406.995 115.181 398.741 110.464C390.486 105.748 380.336 104.08 371.393 107.211C362.45 110.343 353.448 118.858 352.656 128.503C352.249 133.432 352.834 135.714 351.834 140.552C351.316 143.077 352.523 148.135 352.397 150.698C352.16 155.482 355.358 159.933 355.069 164.718C354.892 167.668 353.419 170.344 352.515 173.15C350.294 179.937 351.494 187.314 351.035 194.442C350.576 201.57 347.533 209.554 340.87 211.662C348.236 215.454 358.393 211.465 361.392 203.594C362.302 201.198 362.635 198.529 364.02 196.376C366.359 192.736 371.223 191.295 373.185 187.428C375.147 183.561 373.444 178.845 371.305 175.091C369.165 171.338 366.47 167.569 366.426 163.217C366.443 161.096 367.09 159.032 368.28 157.297C369.47 155.562 371.147 154.239 373.089 153.503C375.11 152.783 377.294 152.745 379.418 152.502C384.689 151.806 389.722 149.838 394.106 146.762C399.829 142.933 401.354 141.758 405.477 148.726Z" fill="#723647"/>
<path d="M355.177 163.097L365.46 164.799C366.259 164.932 367.011 164.377 367.14 163.561C367.269 162.744 366.726 161.975 365.927 161.843L355.644 160.141C354.845 160.008 354.092 160.563 353.963 161.379C353.835 162.196 354.378 162.965 355.177 163.097Z" fill="#252A62"/>
<path d="M333.985 372.65C334.156 384.524 343.935 393.881 355.528 393.881H357.142C358.568 393.876 359.939 394.442 360.962 395.458C361.739 396.203 362.278 397.17 362.51 398.234C362.62 398.662 362.674 399.103 362.672 399.545V420.512C362.665 424.543 363.791 428.492 365.915 431.886C369.006 436.693 370.682 442.311 370.742 448.067C370.742 449.411 371.003 450.741 371.51 451.98C372.018 453.22 372.761 454.343 373.697 455.285C374.633 456.226 375.743 456.968 376.961 457.465C378.18 457.963 379.484 458.206 380.795 458.182C386.214 458.084 390.464 453.307 390.464 447.748V442.509L393.159 442.827V448.082C393.159 449.424 393.421 450.753 393.929 451.99C394.436 453.228 395.179 454.349 396.114 455.289C397.049 456.23 398.158 456.97 399.375 457.466C400.593 457.963 401.895 458.206 403.205 458.182C408.631 458.084 412.881 453.307 412.881 447.748V445.094C415.568 446.247 430.811 446.247 435.038 445.094L436.186 445.004V448.037C436.182 449.383 436.44 450.717 436.945 451.959C437.451 453.202 438.194 454.329 439.13 455.274C440.067 456.219 441.178 456.963 442.398 457.462C443.619 457.962 444.925 458.206 446.239 458.182C451.658 458.084 455.908 453.307 455.908 447.748V443.396L456.803 443.313V448.09C456.806 449.432 457.07 450.759 457.578 451.996C458.087 453.233 458.831 454.353 459.766 455.293C460.702 456.232 461.811 456.971 463.028 457.467C464.245 457.963 465.547 458.206 466.857 458.182C469.246 458.1 471.529 457.146 473.293 455.493C475.057 453.84 476.188 451.597 476.481 449.166C476.537 448.696 476.566 448.222 476.57 447.748V425.819C476.578 418.286 474.114 410.969 469.574 405.043C468.787 403.994 468.347 402.716 468.316 401.394C468.286 400.072 468.666 398.774 469.404 397.688C474.423 390.158 481.848 377.45 481.604 368.441C481.655 365.999 480.819 363.623 479.257 361.776C479.161 361.663 479.057 361.556 478.961 361.45C471.736 353.701 459.017 359.797 460.12 370.451C460.495 374.019 460.244 377.627 459.38 381.104C458.879 383.067 458.202 384.979 457.359 386.814C456.514 388.656 455.125 390.179 453.389 391.168C451.652 392.158 449.656 392.563 447.683 392.327C446.342 392.159 444.992 392.075 443.641 392.077H402.183C399.75 392.078 397.377 391.298 395.399 389.847C393.42 388.395 391.935 386.346 391.152 383.986C390.731 382.75 390.518 381.45 390.523 380.141V347.081C390.524 346.22 390.355 345.367 390.028 344.574C389.7 343.781 389.22 343.063 388.617 342.463C388.013 341.863 387.298 341.394 386.514 341.083C385.73 340.771 384.893 340.625 384.053 340.651C383.232 340.681 382.426 340.88 381.682 341.236C380.938 341.591 380.272 342.097 379.722 342.721C378.599 343.987 377.977 345.636 377.975 347.346C377.976 347.794 377.89 348.237 377.724 348.651C377.557 349.064 377.312 349.44 377.003 349.756C376.695 350.072 376.328 350.323 375.924 350.494C375.52 350.665 375.088 350.752 374.651 350.751H355.055C352.261 350.751 349.496 351.319 346.919 352.424C344.343 353.528 342.006 355.146 340.045 357.184C338.085 359.222 336.539 361.638 335.499 364.294C334.459 366.949 333.944 369.789 333.985 372.65Z" fill="#F3AD55"/>
<path d="M457.144 450.6C457.699 452.801 458.963 454.747 460.731 456.123C462.498 457.498 464.667 458.224 466.886 458.182C469.276 458.1 471.558 457.146 473.323 455.493C475.087 453.84 476.217 451.597 476.511 449.166C470.47 447.521 462.193 446.384 457.144 450.6Z" fill="#FBDCA3"/>
<path d="M436.489 450.6C437.046 452.802 438.311 454.748 440.08 456.123C441.849 457.499 444.019 458.224 446.239 458.182C448.621 458.091 450.894 457.133 452.649 455.481C454.405 453.829 455.528 451.59 455.819 449.166C449.852 447.521 441.597 446.384 436.489 450.6Z" fill="#FBDCA3"/>
<path d="M393.477 450.6C394.032 452.801 395.296 454.747 397.064 456.123C398.831 457.498 401 458.224 403.219 458.182C405.609 458.1 407.891 457.146 409.656 455.493C411.42 453.84 412.55 451.597 412.844 449.166C406.803 447.521 398.541 446.384 393.477 450.6Z" fill="#FBDCA3"/>
<path d="M371.045 450.6C371.601 452.802 372.866 454.749 374.635 456.125C376.404 457.501 378.574 458.226 380.795 458.182C383.178 458.091 385.45 457.133 387.206 455.481C388.961 453.829 390.085 451.59 390.375 449.166C384.408 447.521 376.131 446.384 371.045 450.6Z" fill="#FBDCA3"/>
<path d="M459.32 381.104C466.287 378.238 474.786 372.991 481.53 368.441C481.581 365.999 480.745 363.623 479.183 361.776C479.087 361.662 478.983 361.556 478.887 361.45C471.662 353.701 458.943 359.797 460.046 370.451C460.426 374.018 460.18 377.626 459.32 381.104Z" fill="#FBDCA3"/>
<path d="M450.888 392.137C450.888 392.137 431.707 416.872 400.325 392.077L450.888 392.137Z" fill="#FBDCA3"/>
<path d="M390.464 346.164C390.464 346.164 378.811 361.776 390.464 381.044V346.164Z" fill="#FBDCA3"/>
<path d="M362.673 399.424C362.673 399.424 372.941 412.482 362.806 422.87L362.673 399.424Z" fill="#FBDCA3"/>
<path opacity="0.1" d="M361.777 396.664C362.517 397.422 362.28 398.105 362.517 399.182L395.831 390.242C394.04 388.824 391.811 387.148 391.078 384.934C387.095 388.081 379.196 393.404 361.777 396.664Z" fill="black"/>
<path d="M360.962 395.489C361.739 396.233 362.278 397.2 362.51 398.264L395.002 389.589C393.188 388.157 391.828 386.208 391.093 383.986C387.095 387.163 378.382 392.213 360.962 395.489Z" fill="#383F4D"/>
<path opacity="0.1" d="M389.872 385.821C389.872 385.821 379.707 393.654 362.673 396.08L389.872 385.821Z" fill="black"/>
<path d="M389.872 384.903C389.872 384.903 379.707 392.736 362.673 395.163L389.872 384.903Z" fill="#F3AD55"/>
<path opacity="0.1" d="M364.464 385.647C364.464 385.647 347.437 391.159 342.951 373.711L364.464 385.647Z" fill="black"/>
<path d="M364.464 384.729C364.464 384.729 347.437 390.242 342.951 372.794L364.464 384.729Z" fill="#FBDCA3"/>
<path d="M333.985 373.711C334.975 373.711 335.777 372.272 335.777 370.496C335.777 368.721 334.975 367.281 333.985 367.281C332.996 367.281 332.194 368.721 332.194 370.496C332.194 372.272 332.996 373.711 333.985 373.711Z" fill="#383F4D"/>
<path opacity="0.1" d="M469.803 436.609L466.22 407.227C466.22 407.227 476.977 424.667 469.803 436.609Z" fill="black"/>
<path d="M465.324 407.227C465.324 407.227 476.081 424.667 468.908 436.609L465.324 407.227Z" fill="#FBDCA3"/>
<defs>
<linearGradient id="paint0_linear" x1="187.696" y1="264.466" x2="412.146" y2="299.88" gradientUnits="userSpaceOnUse">
<stop stop-color="#808080" stop-opacity="0.25"/>
<stop offset="0.54" stop-color="#808080" stop-opacity="0.12"/>
<stop offset="1" stop-color="#808080" stop-opacity="0.1"/>
</linearGradient>
</defs>
</svg>
