<svg width="623" height="487" viewBox="0 0 623 487" fill="none" xmlns="http://www.w3.org/2000/svg">
<g clip-path="url(#clip0)">
<g opacity="0.5">
<path opacity="0.5" d="M32.8585 121.269L118.177 121.269V89.5979C118.177 80.8 121.78 72.3625 128.193 66.1415C134.605 59.9204 143.303 56.4255 152.372 56.4255L543.018 56.4255C551.246 56.4255 559.136 59.5961 564.954 65.2399C570.772 70.8837 574.04 78.5384 574.04 86.5199V121.287H586.885C596.455 121.284 605.634 124.967 612.406 131.526C619.177 138.085 622.988 146.983 623 156.267L623 313.281C622.993 322.11 619.548 330.611 613.355 337.081C607.162 343.552 598.678 347.513 589.602 348.173V383.688H553.134V348.279H507.212L507.212 383.987L470.744 383.987V348.279L142.545 348.279V383.987H106.077V348.279H75.6849V383.657L39.1783 383.657V348.279H32.608C28.3261 348.28 24.0861 347.462 20.1299 345.873C16.1738 344.284 12.579 341.955 9.55103 339.018C6.52301 336.081 4.12103 332.594 2.48224 328.756C0.843506 324.919 0 320.806 0 316.652L0 153.151C-0.000854492 148.965 0.84845 144.819 2.49933 140.951C4.15027 137.083 6.57043 133.568 9.6217 130.607C12.673 127.647 16.2955 125.298 20.2825 123.696C24.2695 122.093 28.5428 121.269 32.8585 121.269ZM124.6 259.834V286.364H260.555C259.083 283.807 258.311 280.926 258.314 277.996V259.834H124.6Z" fill="url(#paint0_linear)"/>
</g>
<path d="M544.136 335.008H579.249V377.588H544.136V335.008Z" fill="#F9A826"/>
<path d="M113.656 335.325H148.769V377.906H113.656V335.325Z" fill="#F9A826"/>
<path d="M49.2813 335.008H84.394L84.394 377.588H49.2813L49.2813 335.008Z" fill="#F9A826"/>
<path d="M464.803 335.325H499.916V377.906H464.803V335.325Z" fill="#F9A826"/>
<path opacity="0.3" d="M544.136 335.008H579.249V377.588H544.136V335.008Z" fill="black"/>
<path opacity="0.3" d="M113.656 335.325H148.769V377.906H113.656V335.325Z" fill="black"/>
<path opacity="0.3" d="M49.2813 335.008H84.394L84.394 377.588H49.2813L49.2813 335.008Z" fill="black"/>
<path opacity="0.3" d="M464.803 335.325H499.916V377.906H464.803V335.325Z" fill="black"/>
<path d="M131.536 124.939L43.1989 124.939C34.8079 124.939 26.7606 128.172 20.8273 133.928C14.894 139.684 11.5607 147.491 11.5607 155.631L11.5607 313.075C11.5607 321.151 14.8677 328.896 20.754 334.607C26.6403 340.317 34.6238 343.525 42.9484 343.525H131.536L131.536 124.939Z" fill="#F9A826"/>
<path opacity="0.3" d="M131.536 124.939L43.1989 124.939C34.8079 124.939 26.7606 128.172 20.8273 133.928C14.894 139.684 11.5607 147.491 11.5607 155.631L11.5607 313.075C11.5607 321.151 14.8677 328.896 20.754 334.607C26.6403 340.317 34.6238 343.525 42.9484 343.525H131.536L131.536 124.939Z" fill="black"/>
<path d="M534.425 62.488L365.309 62.488L365.309 258.363L564.297 258.363V91.4609C564.295 83.7762 561.147 76.4069 555.545 70.9736C549.943 65.5403 542.346 62.488 534.425 62.488Z" fill="#F9A826"/>
<path opacity="0.3" d="M533.461 62.488L365.309 62.488L365.309 258.363L564.297 258.363V92.3955C564.297 88.4674 563.499 84.5779 561.949 80.9489C560.4 77.32 558.128 74.0227 555.265 71.2455C552.401 68.4682 549.002 66.2654 545.261 64.7628C541.52 63.2601 537.51 62.4872 533.461 62.488Z" fill="black"/>
<path d="M488.638 62.488L324.667 62.488L324.667 258.363L523.654 258.363V96.4517C523.654 87.444 519.965 78.8052 513.4 72.4357C506.834 66.0663 497.929 62.488 488.644 62.488H488.638Z" fill="#F9A826"/>
<path d="M325.63 62.488L158.287 62.488C149.554 62.488 141.178 65.8536 135.003 71.8444C128.827 77.8353 125.358 85.9606 125.358 94.4329L125.358 258.363L325.63 258.363L325.63 62.488Z" fill="#F9A826"/>
<path d="M75.9353 124.939L43.1796 124.939C34.792 124.944 26.7497 128.179 20.8206 133.935C14.8914 139.69 11.5608 147.494 11.5608 155.631L11.5608 313.075C11.5608 321.151 14.8677 328.896 20.754 334.607C26.6404 340.317 34.6239 343.525 42.9484 343.525H75.9353L75.9353 124.939Z" fill="#F9A826"/>
<path d="M75.9418 283.909L479.761 283.909V343.525L75.9418 343.525V283.909Z" fill="#F9A826"/>
<path d="M386.972 132.623L431.097 145.1C450.525 150.594 461.684 170.326 456.021 189.173L441.404 237.823C435.741 256.671 415.401 267.496 395.973 262.003L351.849 249.526C332.421 244.032 321.262 224.3 326.924 205.453L341.541 156.803C347.204 137.955 367.544 127.13 386.972 132.623Z" fill="url(#paint1_linear)"/>
<path d="M389.403 138.435L430.55 150.069C448.667 155.192 459.072 173.593 453.792 191.168L440.162 236.534C434.881 254.11 415.913 264.205 397.797 259.082L356.65 247.447C338.533 242.325 328.127 223.924 333.408 206.348L347.038 160.982C352.319 143.407 371.286 133.312 389.403 138.435Z" fill="#F55F44"/>
<path opacity="0.1" d="M389.403 138.435L430.55 150.069C448.667 155.192 459.072 173.593 453.792 191.168L440.162 236.534C434.881 254.11 415.913 264.205 397.797 259.082L356.65 247.447C338.533 242.325 328.127 223.924 333.408 206.348L347.038 160.982C352.319 143.407 371.286 133.312 389.403 138.435Z" fill="black"/>
<path d="M387.28 136.987L428.426 148.622C446.543 153.745 456.949 172.145 451.669 189.721L438.038 235.087C432.758 252.662 413.79 262.757 395.673 257.634L354.527 246C336.41 240.877 326.004 222.476 331.285 204.901L344.915 159.535C350.196 141.959 369.163 131.865 387.28 136.987Z" fill="#F55F44"/>
<path d="M396.08 176.154C392.114 173.447 391.16 168.134 393.95 164.287C396.74 160.439 402.216 159.514 406.182 162.22C410.149 164.926 411.102 170.239 408.313 174.087C405.523 177.934 400.047 178.86 396.08 176.154Z" fill="url(#paint2_linear)"/>
<path d="M354.075 199.549C350.109 196.843 349.155 191.53 351.945 187.682C354.734 183.834 360.211 182.909 364.177 185.615C368.143 188.321 369.097 193.634 366.307 197.482C363.518 201.33 358.041 202.255 354.075 199.549Z" fill="url(#paint3_linear)"/>
<path d="M419.229 223.173C415.263 220.467 414.309 215.154 417.098 211.306C419.888 207.459 425.365 206.533 429.331 209.24C433.297 211.946 434.251 217.259 431.461 221.106C428.672 224.954 423.195 225.879 419.229 223.173Z" fill="url(#paint4_linear)"/>
<path d="M379.621 248.206C375.655 245.5 374.701 240.187 377.491 236.34C380.281 232.492 385.757 231.567 389.723 234.273C393.69 236.979 394.643 242.292 391.854 246.14C389.064 249.987 383.588 250.913 379.621 248.206Z" fill="url(#paint5_linear)"/>
<path d="M397.765 173.83C395.122 172.026 394.487 168.485 396.346 165.921C398.205 163.357 401.854 162.74 404.498 164.544C407.141 166.347 407.776 169.888 405.917 172.452C404.058 175.016 400.409 175.633 397.765 173.83Z" fill="#F99F8F"/>
<path d="M355.76 197.225C353.117 195.421 352.481 191.881 354.34 189.317C356.199 186.752 359.849 186.136 362.492 187.939C365.135 189.743 365.771 193.283 363.912 195.847C362.053 198.412 358.403 199.028 355.76 197.225Z" fill="#F99F8F"/>
<path d="M420.914 220.849C418.271 219.046 417.635 215.505 419.494 212.941C421.353 210.377 425.003 209.76 427.646 211.564C430.289 213.367 430.925 216.908 429.066 219.472C427.207 222.036 423.557 222.653 420.914 220.849Z" fill="#F99F8F"/>
<path d="M381.306 245.882C378.663 244.079 378.028 240.538 379.887 237.974C381.746 235.41 385.395 234.793 388.039 236.597C390.682 238.4 391.317 241.941 389.458 244.505C387.599 247.069 383.95 247.686 381.306 245.882Z" fill="#F99F8F"/>
<path d="M576.673 124.939L447.577 124.939L447.577 343.525H576.673C585.893 343.525 594.735 339.972 601.254 333.649C607.774 327.325 611.438 318.748 611.439 309.804V158.666C611.439 149.721 607.776 141.142 601.256 134.817C594.737 128.492 585.894 124.939 576.673 124.939Z" fill="#F9A826"/>
<path opacity="0.3" d="M576.429 124.939L479.967 124.939C475.71 124.939 471.496 125.752 467.564 127.333C463.631 128.914 460.059 131.231 457.05 134.152C454.042 137.073 451.656 140.541 450.03 144.357C448.403 148.173 447.568 152.262 447.571 156.391L447.571 312.097C447.571 320.432 450.984 328.426 457.06 334.32C463.135 340.214 471.375 343.525 479.967 343.525H576.429C585.714 343.525 594.619 339.947 601.185 333.577C607.751 327.208 611.439 318.569 611.439 309.561V158.884C611.434 149.879 607.743 141.245 601.178 134.88C594.613 128.514 585.711 124.939 576.429 124.939Z" fill="black"/>
<path opacity="0.1" d="M511.624 124.939L455.24 124.939C452.344 124.939 449.567 126.055 447.519 128.041C445.471 130.027 444.321 132.722 444.321 135.531L444.321 332.933C444.321 335.742 445.471 338.436 447.519 340.423C449.567 342.409 452.344 343.525 455.24 343.525H511.624L511.624 124.939Z" fill="black"/>
<path d="M514.874 124.939L458.49 124.939C455.594 124.939 452.817 126.055 450.769 128.041C448.721 130.027 447.571 132.722 447.571 135.531L447.571 332.933C447.571 335.742 448.721 338.436 450.769 340.423C452.817 342.409 455.594 343.525 458.49 343.525H514.874V124.939Z" fill="#F9A826"/>
<path d="M260.292 238.494L462.202 238.494V292.433L260.292 292.433V238.494Z" fill="#F9A826"/>
<path d="M58.0546 238.805L259.964 238.805V292.745L58.0546 292.745V238.805Z" fill="#F9A826"/>
<path opacity="0.15" d="M277.376 238.494L445.118 238.494C454.553 238.494 462.202 245.914 462.202 255.067V275.859C462.202 285.013 454.553 292.433 445.118 292.433L277.376 292.433C267.941 292.433 260.292 285.013 260.292 275.859V255.067C260.292 245.914 267.941 238.494 277.376 238.494Z" fill="white"/>
<path d="M236.721 139.288C230.258 139.288 225.019 134.205 225.019 127.936C225.019 121.666 230.258 116.583 236.721 116.583C243.184 116.583 248.423 121.666 248.423 127.936C248.423 134.205 243.184 139.288 236.721 139.288Z" fill="#F9A826"/>
<path opacity="0.3" d="M236.721 139.288C230.258 139.288 225.019 134.205 225.019 127.936C225.019 121.666 230.258 116.583 236.721 116.583C243.184 116.583 248.423 121.666 248.423 127.936C248.423 134.205 243.184 139.288 236.721 139.288Z" fill="black"/>
<path d="M418.142 139.288C411.679 139.288 406.44 134.205 406.44 127.936C406.44 121.666 411.679 116.583 418.142 116.583C424.605 116.583 429.844 121.666 429.844 127.936C429.844 134.205 424.605 139.288 418.142 139.288Z" fill="#F9A826"/>
<path opacity="0.3" d="M418.142 139.288C411.679 139.288 406.44 134.205 406.44 127.936C406.44 121.666 411.679 116.583 418.142 116.583C424.605 116.583 429.844 121.666 429.844 127.936C429.844 134.205 424.605 139.288 418.142 139.288Z" fill="black"/>
<path d="M424 68.0022C422.382 68.0022 421.071 66.0969 421.071 63.7466C421.071 61.3963 422.382 59.491 424 59.491C425.617 59.491 426.928 61.3963 426.928 63.7466C426.928 66.0969 425.617 68.0022 424 68.0022Z" fill="#FDA57D"/>
<path opacity="0.15" d="M75.1389 238.805L242.88 238.805C252.315 238.805 259.964 246.225 259.964 255.379V276.171C259.964 285.324 252.315 292.745 242.88 292.745L75.1389 292.745C65.7035 292.745 58.0546 285.324 58.0546 276.171V255.379C58.0546 246.225 65.7035 238.805 75.1389 238.805Z" fill="white"/>
<g opacity="0.5">
<path opacity="0.5" d="M191.113 129.605C192.456 122.446 193.83 115.206 196.894 108.546C200.249 101.229 205.505 94.8822 212.147 90.1275C213.134 89.4042 214.356 89.0502 215.59 89.1306C217.517 89.2926 218.108 90.439 218.41 91.6229C218.448 91.7662 218.48 91.9033 218.506 92.0466C219.264 95.6791 218.756 99.268 217.658 102.807C216.29 107.225 213.997 111.53 212.09 115.804C208.653 123.463 206.375 131.564 205.327 139.855C205.185 140.952 205.076 142.079 205.05 143.207C205.032 143.878 205.049 144.55 205.102 145.22C205.188 146.533 205.496 147.823 206.014 149.039C206.104 149.238 206.2 149.446 206.303 149.662C206.406 149.878 206.517 150.069 206.637 150.235C207.806 152.105 209.63 153.438 211.415 154.753C213.201 156.067 215.224 157.469 217.356 158.18H217.286C218.278 158.527 219.327 158.694 220.381 158.672C223.676 158.572 227.189 155.999 230.503 156.603L230.876 156.684C234.267 157.575 236.868 162.747 236.894 166.03C236.894 166.292 236.894 166.545 236.894 166.79C236.894 166.878 236.894 166.965 236.862 167.052C236.83 167.139 236.823 167.382 236.798 167.538C236.772 167.694 236.759 167.731 236.733 167.825C236.708 167.918 236.676 168.105 236.637 168.242C236.599 168.379 236.579 168.435 236.547 168.529C236.515 168.622 236.464 168.784 236.419 168.909C236.374 169.033 236.342 169.096 236.303 169.183C236.265 169.27 236.2 169.42 236.143 169.532L236.001 169.794C235.937 169.9 235.879 170.012 235.809 170.118L235.642 170.367L235.423 170.666L235.237 170.896L234.986 171.171L234.781 171.382L234.505 171.638L234.28 171.831L233.978 172.068L233.74 172.249L233.413 172.467L233.169 172.629L232.809 172.834L232.559 172.971L232.154 173.164L231.916 173.277C231.724 173.364 231.525 173.445 231.326 173.52L231.037 173.626L230.574 173.788L230.24 173.887L229.861 173.999L229.489 174.093L229.129 174.18L228.731 174.261L228.384 174.33L227.967 174.398L227.633 174.448L227.202 174.504L226.881 174.541L226.431 174.579H226.117H225.654H225.359H224.877H223.869H223.342H223.156L222.591 174.535H222.482C220.878 174.4 219.3 174.063 217.787 173.532C212.989 171.769 208.917 168.547 205.147 165.164C197.671 158.466 190.606 150.154 190.008 140.297C189.777 136.74 190.452 133.151 191.113 129.605Z" fill="url(#paint6_linear)"/>
</g>
<path opacity="0.1" d="M222.732 127.238L283.279 127.238V144.241H222.732V127.238Z" fill="black"/>
<path d="M222.732 127.238L283.279 127.238V142.696H222.732V127.238Z" fill="#F9A826"/>
<path d="M248.224 129.3C242.946 129.3 238.667 125.149 238.667 120.029C238.667 114.908 242.946 110.757 248.224 110.757C253.502 110.757 257.781 114.908 257.781 120.029C257.781 125.149 253.502 129.3 248.224 129.3Z" fill="#F9A826"/>
<path d="M266.246 134.297L266.361 134.185C266.144 134.026 265.969 133.82 265.848 133.584C265.726 133.348 265.663 133.087 265.663 132.824C265.663 132.56 265.726 132.3 265.848 132.063C265.969 131.827 266.144 131.621 266.361 131.462L266.259 131.338C266.027 131.512 265.839 131.736 265.709 131.992C265.58 132.248 265.513 132.529 265.513 132.814C265.513 133.099 265.58 133.38 265.709 133.636C265.839 133.892 266.027 134.116 266.259 134.291L266.246 134.297Z" fill="#4D8AF0"/>
<path opacity="0.1" d="M266.246 134.297L266.361 134.185C266.144 134.026 265.969 133.82 265.848 133.584C265.726 133.348 265.663 133.087 265.663 132.824C265.663 132.56 265.726 132.3 265.848 132.063C265.969 131.827 266.144 131.621 266.361 131.462L266.259 131.338C266.027 131.512 265.839 131.736 265.709 131.992C265.58 132.248 265.513 132.529 265.513 132.814C265.513 133.099 265.58 133.38 265.709 133.636C265.839 133.892 266.027 134.116 266.259 134.291L266.246 134.297Z" fill="black"/>
<path d="M266.361 134.297C266.594 134.122 266.781 133.899 266.911 133.643C267.04 133.387 267.107 133.105 267.107 132.82C267.107 132.535 267.04 132.254 266.911 131.998C266.781 131.742 266.594 131.518 266.361 131.344L266.259 131.468C266.476 131.628 266.651 131.833 266.773 132.07C266.894 132.306 266.957 132.566 266.957 132.83C266.957 133.094 266.894 133.354 266.773 133.59C266.651 133.826 266.476 134.032 266.259 134.191L266.361 134.297Z" fill="#4D8AF0"/>
<path d="M217.401 184.18C213.015 182.567 209.296 179.619 205.84 176.529C199.007 170.41 192.558 162.821 192.006 153.806C191.807 150.516 192.417 147.238 193.027 143.992C194.254 137.45 195.506 130.833 198.287 124.752C201.354 118.068 206.156 112.272 212.225 107.929C213.128 107.266 214.248 106.943 215.378 107.019C217.305 107.187 217.793 108.471 218.05 109.698C219.611 117.175 215.327 124.428 212.192 131.406C209.053 138.404 206.972 145.806 206.014 153.382C205.609 156.597 205.461 160.074 207.208 162.84C208.275 164.535 209.944 165.769 211.576 166.965C214.016 168.753 216.714 170.629 219.771 170.541C222.828 170.454 226.245 167.906 229.405 168.728C232.565 169.551 234.884 174.267 234.903 177.289C234.942 185.476 223.272 186.336 217.401 184.18Z" fill="#FFD180"/>
<g opacity="0.1">
<path opacity="0.1" d="M207.221 162.84C208.287 164.535 209.957 165.769 211.589 166.965C213.221 168.272 215.055 169.323 217.022 170.08C214.248 169.9 211.762 168.211 209.508 166.535C207.876 165.339 206.206 164.099 205.14 162.41C203.4 159.65 203.541 156.179 203.946 152.952C204.903 145.376 206.984 137.974 210.124 130.976C213.259 123.992 217.549 116.733 215.982 109.268C215.938 108.827 215.802 108.399 215.581 108.011C215.36 107.623 215.059 107.283 214.697 107.013C214.934 106.993 215.173 106.993 215.41 107.013C217.337 107.181 217.825 108.465 218.082 109.692C219.643 117.169 215.359 124.421 212.224 131.4C209.085 138.398 207.004 145.8 206.046 153.376C205.622 156.597 205.474 160.074 207.221 162.84Z" fill="black"/>
<path opacity="0.1" d="M232.809 176.878C232.809 174.087 230.76 169.843 228.005 168.572C228.475 168.561 228.944 168.613 229.399 168.728C232.501 169.544 234.877 174.267 234.897 177.289C234.935 184.928 224.794 186.174 218.66 184.573C224.755 185.433 232.848 183.682 232.809 176.878Z" fill="black"/>
</g>
<g opacity="0.5">
<path opacity="0.5" d="M277.543 91.7101C277.543 91.7101 260.048 88.3144 251.3 91.7101C251.3 91.7101 246.053 79.8281 240.806 79.8281C235.558 79.8281 233.811 98.5203 233.811 98.5203L226.817 125.674C226.817 125.674 193.58 183.377 226.817 213.92C260.054 244.463 312.528 210.505 312.528 188.442C312.528 166.379 302.033 120.565 302.033 120.565C302.033 120.565 291.538 83.2301 288.038 79.8343C284.538 76.4386 277.543 91.7101 277.543 91.7101Z" fill="url(#paint7_linear)"/>
</g>
<path d="M276.952 94.0715C276.952 94.0715 260.138 90.8066 251.73 94.0715C251.73 94.0715 246.689 82.6506 241.64 82.6506C236.592 82.6506 234.916 100.595 234.916 100.595L228.191 126.696C228.191 126.696 196.238 182.149 228.191 211.527C260.144 240.905 310.594 208.262 310.594 187.059C310.594 165.856 300.504 121.805 300.504 121.805C300.504 121.805 290.414 85.9155 287.049 82.6506C283.683 79.3857 276.952 94.0715 276.952 94.0715Z" fill="#FFD180"/>
<g opacity="0.1">
<path opacity="0.1" d="M216.444 157.189C219.024 146.585 222.978 136.342 228.211 126.702L227.151 130.827C222.595 139.206 219.004 148.047 216.444 157.189Z" fill="white"/>
<path opacity="0.1" d="M307.569 182.666C307.569 161.482 299.432 125.929 299.432 125.929C299.432 125.929 289.342 90.0403 285.976 86.7754C282.611 83.5105 275.886 98.1963 275.886 98.1963C275.886 98.1963 259.072 94.9314 250.664 98.1963C250.664 98.1963 245.616 86.7754 240.574 86.7754C238.648 86.7754 237.164 89.4795 236.123 92.788C237.151 87.9467 238.898 82.6506 241.634 82.6506C246.676 82.6506 251.724 94.0715 251.724 94.0715C260.131 90.8066 276.946 94.0715 276.946 94.0715C276.946 94.0715 283.671 79.392 287.036 82.6506C290.402 85.9093 300.492 121.805 300.492 121.805C300.492 121.805 308.629 157.32 308.629 178.542C308.636 180.461 307.569 183.277 307.569 182.666Z" fill="white"/>
</g>
<path d="M244.158 125.886C242.3 125.886 240.793 124.424 240.793 122.621C240.793 120.818 242.3 119.356 244.158 119.356C246.017 119.356 247.524 120.818 247.524 122.621C247.524 124.424 246.017 125.886 244.158 125.886Z" fill="#58555D"/>
<path d="M282.836 125.886C280.977 125.886 279.47 124.424 279.47 122.621C279.47 120.818 280.977 119.356 282.836 119.356C284.694 119.356 286.201 120.818 286.201 122.621C286.201 124.424 284.694 125.886 282.836 125.886Z" fill="#58555D"/>
<path d="M262.655 129.151C259.871 129.151 257.614 127.689 257.614 125.886C257.614 124.082 259.871 122.621 262.655 122.621C265.44 122.621 267.697 124.082 267.697 125.886C267.697 127.689 265.44 129.151 262.655 129.151Z" fill="#58555D"/>
<path d="M219.115 118.535L234.25 121.795L233.886 123.389L218.75 120.129L219.115 118.535Z" fill="#FFD180"/>
<path d="M217.41 125.063L234.228 128.314L233.899 129.915L217.081 126.664L217.41 125.063Z" fill="#FFD180"/>
<path d="M311.118 113.702L311.743 115.217L294.926 121.743L294.301 120.227L311.118 113.702Z" fill="#FFD180"/>
<path d="M316.32 121.829L316.576 123.442L294.714 126.707L294.458 125.093L316.32 121.829Z" fill="#FFD180"/>
<path opacity="0.1" d="M266.849 146.759C271.251 146.762 275.646 146.4 279.984 145.674C288.324 144.281 296.35 141.483 303.696 137.406L303.112 134.771C295.682 138.674 287.661 141.408 279.348 142.871C267.241 144.883 246.419 144.279 225.256 132.951L223.843 135.444C239.206 143.681 255.378 146.759 266.849 146.759Z" fill="black"/>
<path d="M225.256 132.347C246.451 143.674 267.248 144.279 279.348 142.266C287.661 140.804 295.683 138.07 303.112 134.166L304.666 136.571C296.967 140.676 288.631 143.54 279.984 145.051C275.644 145.779 271.247 146.144 266.843 146.142C255.372 146.142 239.226 143.07 223.811 134.845L225.256 132.347ZM266.304 145.917C266.368 145.917 266.432 145.899 266.486 145.864C266.539 145.829 266.581 145.779 266.606 145.721C266.631 145.663 266.637 145.599 266.625 145.538C266.612 145.476 266.581 145.419 266.535 145.375C266.489 145.331 266.431 145.3 266.367 145.288C266.304 145.276 266.238 145.282 266.178 145.306C266.118 145.33 266.067 145.371 266.031 145.423C265.995 145.475 265.976 145.537 265.976 145.6C265.978 145.683 266.013 145.762 266.074 145.82C266.135 145.879 266.218 145.911 266.304 145.911V145.917Z" fill="#F55F44"/>
<path opacity="0.1" d="M269.56 150.329C269.56 151.165 269.218 151.967 268.608 152.558C267.999 153.149 267.172 153.482 266.31 153.482C265.448 153.482 264.622 153.149 264.012 152.558C263.403 151.967 263.06 151.165 263.06 150.329C263.06 149.493 263.403 148.691 264.012 148.099C264.622 147.508 265.448 147.176 266.31 147.176C267.172 147.176 267.999 147.508 268.608 148.099C269.218 148.691 269.56 149.493 269.56 150.329ZM266.31 148.752C266.417 148.752 266.521 148.722 266.61 148.664C266.699 148.607 266.768 148.525 266.809 148.429C266.849 148.334 266.86 148.228 266.839 148.127C266.818 148.025 266.767 147.932 266.692 147.859C266.616 147.786 266.52 147.736 266.415 147.716C266.311 147.696 266.202 147.706 266.104 147.746C266.005 147.785 265.921 147.852 265.862 147.938C265.802 148.024 265.771 148.126 265.771 148.229C265.771 148.367 265.827 148.499 265.926 148.597C266.026 148.695 266.162 148.751 266.304 148.752H266.31Z" fill="url(#paint8_linear)"/>
<path d="M269.232 150.329C269.232 151.082 268.924 151.805 268.375 152.338C267.825 152.871 267.08 153.17 266.304 153.17C265.527 153.17 264.782 152.871 264.233 152.338C263.683 151.805 263.375 151.082 263.375 150.329C263.375 149.575 263.683 148.853 264.233 148.32C264.782 147.787 265.527 147.488 266.304 147.488C267.08 147.488 267.825 147.787 268.375 148.32C268.924 148.853 269.232 149.575 269.232 150.329ZM266.304 148.908C266.4 148.908 266.495 148.88 266.575 148.828C266.655 148.776 266.718 148.702 266.755 148.616C266.792 148.529 266.801 148.434 266.782 148.342C266.764 148.25 266.717 148.166 266.649 148.1C266.581 148.034 266.494 147.988 266.399 147.97C266.304 147.952 266.206 147.961 266.117 147.997C266.028 148.033 265.951 148.094 265.898 148.172C265.844 148.249 265.816 148.341 265.816 148.435C265.816 148.56 265.867 148.681 265.958 148.77C266.05 148.858 266.174 148.908 266.304 148.908Z" fill="#4D8AF0"/>
<path d="M229.566 133.294C274.326 158.84 300.119 135.163 300.119 135.163L229.566 133.294Z" fill="#FFD180"/>
<path d="M106.777 258.8C109.52 251.254 138.891 272.507 138.891 272.507L145.679 272.115L158.743 260.376L149.623 251.528L226.207 187.819C228.251 186.12 230.639 184.855 233.217 184.104C235.796 183.353 238.507 183.133 241.178 183.458L304.846 191.159C305.122 187.62 307.37 183.414 310.55 179.121C317.081 168.728 330.832 156.996 335.906 152.827L343.691 102.059L337.094 92.4578C338.315 92.1339 339.516 91.7429 340.691 91.2864L339.297 89.2552L339.811 89.1181L339.169 88.3829H339.246L322.817 69.9399C321.597 68.5712 320.971 66.7969 321.072 64.99C321.172 63.1831 321.991 61.4844 323.356 60.2511L360.126 33.1475C359.011 30.5659 358.477 27.7832 358.559 24.9852C358.27 19.6019 360.756 14.1375 369.086 10.0938C374.24 7.70964 379.639 5.85927 385.194 4.57335C394.347 2.28868 403.963 2.42638 413.043 4.97212C413.19 4.79143 413.351 4.61074 413.518 4.42382C424.835 -8.12487 439.677 9.90686 440.256 10.6545L498.265 73.2484C499.842 75.6783 500.419 78.5949 499.882 81.4186C499.344 84.2423 497.73 86.7663 495.362 88.4888L464.655 110.826L464.752 111.019L463.017 112.265C464.302 114.758 466.094 116.44 468.438 116.695L463.737 118.976C464.479 119.48 465.341 119.795 466.242 119.892L444.713 130.334C444.713 141.188 443.557 190.878 425.368 215.272C423.504 218.274 421.286 221.055 418.759 223.559C418.759 223.559 417.211 222.742 414.385 221.421L411.135 227.733C407.563 234.663 401.835 240.326 394.76 243.922C387.686 247.517 379.625 248.861 371.719 247.765L270.658 233.758L271.731 236.874L271.153 236.793L303.908 332.123L298.501 333.874L298.603 334.061L297.839 334.378L304.653 346.84L326.099 362.84C326.099 362.84 263.42 393.24 256.824 388.442C250.228 383.645 279.945 362.84 279.945 362.84L281.596 356.441L274.383 341.668L268.34 343.625L219.771 249.391L218.121 246.189L185.249 286.065L175.982 277.081L174.98 278.065L174.896 277.984L162.051 290.595L152.744 315.238C152.744 315.238 104.048 266.345 106.777 258.8ZM361.758 75.5538L362.4 74.8311C366.318 79.5851 373.248 85.3361 380.974 89.2303V83.9902L380.608 83.6787V81.3982C375.724 77.0371 372.193 71.4398 370.411 65.2366C368.63 59.0334 368.669 52.4708 370.524 46.2881L349.188 62.1827L361.758 75.5538ZM434.173 16.4678L434.687 15.9694L434.167 16.4678H434.173ZM451.225 49.7898C451.367 51.4513 451.425 53.1232 451.399 54.8055C451.436 57.2482 451.297 59.6904 450.981 62.1141C449.883 70.5817 446.755 77.504 440.313 80.8063C434.7 83.6725 431.007 83.5167 428.656 81.5602L428.399 81.7845C428.202 85.0963 427.315 88.335 425.792 91.3051C437.817 88.8694 449.301 84.3822 459.71 78.0523C459.71 78.0523 459.671 78.476 459.626 79.2362L468.451 70.6752L451.225 49.7898Z" fill="url(#paint9_linear)"/>
<path d="M290.196 316.066L304.615 342.491L282.187 351.812L267.768 322.284L290.196 316.066Z" fill="#FDA57D"/>
<path d="M282.187 351.812L280.588 358.043C280.588 358.043 251.75 378.249 258.16 382.909C264.57 387.57 325.45 358.043 325.45 358.043L304.621 342.497L282.187 351.812Z" fill="#333333"/>
<path opacity="0.1" d="M269.303 325.026L291.994 317.692L298.744 330.054L276.316 339.382L269.303 325.026Z" fill="black"/>
<path d="M187.741 266.569L166.084 287.841L150.188 269.878L174.903 247.678L187.741 266.569Z" fill="#FDA57D"/>
<path opacity="0.1" d="M174.01 248.712L186.849 267.61L178.64 275.666L161.986 259.51L174.01 248.712Z" fill="black"/>
<path d="M150.188 269.872L143.592 270.252C143.592 270.252 115.075 249.622 112.41 256.949C109.744 264.276 157.041 311.779 157.041 311.779L166.078 287.841L150.188 269.872Z" fill="#333333"/>
<path d="M355.527 110.826L322.245 73.4416C321.059 72.1115 320.452 70.3871 320.55 68.6312C320.648 66.8753 321.445 65.2248 322.772 64.027L395.194 10.7792L403.987 24.088L347.859 66.0021L371.687 91.3487L355.527 110.826Z" fill="#FDA57D"/>
<path opacity="0.1" d="M359.349 78.2704L370.993 90.6571L354.815 110.159L338.116 91.4297C346.262 88.928 353.585 84.3894 359.349 78.2704Z" fill="black"/>
<path d="M452.157 118.938L489.839 91.5232C492.138 89.8494 493.705 87.3977 494.227 84.655C494.75 81.9124 494.19 79.0794 492.658 76.719L436.273 15.851L424.713 27.0663L463.718 74.2017L440.66 96.5701L452.157 118.938Z" fill="#FDA57D"/>
<path opacity="0.1" d="M460.127 113.418L453.961 117.904L442.401 95.5358L456.916 81.4979C456.608 86.2582 455.741 104.757 460.127 113.418Z" fill="black"/>
<path d="M269.31 227.509L303.902 328.179L269.31 339.363L211.666 227.509L257.781 216.325L269.31 227.509Z" fill="#4D8AF0"/>
<path opacity="0.1" d="M270.915 230.618L272.643 235.652L236.323 230.618L222.135 247.827L213.265 230.618L259.386 219.434L270.915 230.618Z" fill="black"/>
<path d="M436.35 15.9195C436.35 15.9195 421.578 -2.56083 410.358 9.8757C399.137 22.3122 427.982 23.8637 427.982 23.8637L436.35 15.9195Z" fill="#FDA57D"/>
<path d="M419.196 205.141L408.052 226.767C404.583 233.499 399.019 239 392.147 242.492C385.276 245.985 377.446 247.291 369.767 246.226L234.723 227.534L188.602 283.461L154.016 249.908L228.423 188.037C230.408 186.386 232.727 185.156 235.231 184.425C237.735 183.694 240.369 183.48 242.964 183.794L419.196 205.141Z" fill="#4D8AF0"/>
<path opacity="0.1" d="M453.081 84.4825C453.081 84.4825 450.044 120.808 461.572 122.054L438.515 133.269C438.515 133.269 439.799 199.134 415.457 222.749C415.457 222.749 370.621 199.134 323.221 200.38C275.822 201.626 334.782 155.637 334.782 155.637L342.566 104.72L336.144 95.3738C344.827 92.8512 352.601 88.0028 358.572 81.3858C364.994 89.1555 379.677 99.6917 392.413 99.6917H397.923C416.909 99.6917 437.102 95.9532 453.101 86.0464L453.081 84.4825Z" fill="black"/>
<path d="M455.22 81.3733C455.22 81.3733 452.157 117.698 463.718 118.938L440.66 130.154C440.66 130.154 441.945 196.019 417.603 219.633C417.603 219.633 372.766 196.019 325.367 197.265C277.967 198.511 336.927 152.522 336.927 152.522L344.712 101.605L338.289 92.2584C346.973 89.7358 354.747 84.8874 360.717 78.2704C367.14 86.0401 381.822 96.5763 394.558 96.5763H400.069C419.054 96.5763 439.247 91.2989 455.246 81.3733H455.22Z" fill="#3AD29F"/>
<path d="M424.847 71.13V83.5915C424.847 89.9202 422.255 95.9895 417.641 100.464L390.255 127.032L381.141 109.343C379.553 106.263 378.727 102.867 378.726 99.4237V71.13L424.847 71.13Z" fill="#FDA57D"/>
<path opacity="0.1" d="M424.494 85.5168C424.494 85.9778 424.494 86.4327 424.449 86.8938C418.106 92.3816 409.903 95.4113 401.404 95.4044C392.905 95.3975 384.706 92.3545 378.373 86.8564V73.0304L424.494 73.0304V85.5168Z" fill="black"/>
<path d="M401.79 93.5045C382.689 93.5045 367.204 78.4826 367.204 59.9521C367.204 41.4216 382.689 26.3996 401.79 26.3996C420.891 26.3996 436.376 41.4216 436.376 59.9521C436.376 78.4826 420.891 93.5045 401.79 93.5045Z" fill="#FDA57D"/>
<path opacity="0.1" d="M424.847 50.4876L367.197 50.4876C367.197 50.4876 344.14 28.1193 367.197 16.9351C372.204 14.6207 377.448 12.8246 382.843 11.5767C417.904 2.95336 451.245 31.0851 446.736 65.9024C445.67 74.127 442.632 80.8562 436.376 84.0401C412.041 96.4517 424.847 50.4876 424.847 50.4876Z" fill="black"/>
<path d="M424.847 48.9362L367.197 48.9362C367.197 48.9362 344.14 26.5678 367.197 15.3837C372.204 13.0692 377.448 11.2732 382.843 10.0253C417.904 1.40192 451.245 29.5337 446.736 64.351C445.67 72.5755 442.632 79.3047 436.376 82.4886C412.041 94.9189 424.847 48.9362 424.847 48.9362Z" fill="#333333"/>
<path d="M423.177 65.8277C421.407 65.8277 419.973 63.3923 419.973 60.3882C419.973 57.3841 421.407 54.9488 423.177 54.9488C424.947 54.9488 426.382 57.3841 426.382 60.3882C426.382 63.3923 424.947 65.8277 423.177 65.8277Z" fill="#FDA57D"/>
<path opacity="0.1" d="M440.801 129.556L439.196 124.889L434.391 127.998L440.801 129.556Z" fill="black"/>
<path opacity="0.1" d="M336.837 152.528C336.837 152.528 354.281 160.628 359.092 168.417L336.837 152.528Z" fill="black"/>
<path opacity="0.1" d="M344.673 101.58L346.272 106.24L349.477 101.58H344.673Z" fill="black"/>
<path d="M424.847 48.9362L367.197 48.9362C367.197 48.9362 344.14 26.5678 367.197 15.3837C372.204 13.0692 377.448 11.2732 382.843 10.0253C417.904 1.40192 451.245 29.5337 446.736 64.351C445.67 72.5755 442.632 79.3047 436.376 82.4886C412.041 94.9189 424.847 48.9362 424.847 48.9362Z" fill="#333333"/>
<path opacity="0.1" d="M269.753 174.56C269.753 174.56 258.057 199.228 273.414 201.352C288.77 203.477 281.763 180.691 281.763 180.691C281.763 180.691 283.298 173.931 287.036 173.551" fill="black"/>
<path opacity="0.1" d="M255.623 173.962C255.623 173.962 269.528 197.527 254.428 200.941C239.328 204.355 244.222 181.084 244.222 181.084C244.222 181.084 242.077 174.485 238.313 174.423" fill="black"/>
<path d="M271.108 173.868C271.108 173.868 259.412 198.536 274.769 200.661C290.125 202.785 283.118 180 283.118 180C283.118 180 284.653 173.22 288.378 172.84" fill="#FFD180"/>
<path d="M254.537 172.921C254.537 172.921 268.468 196.492 253.343 199.882C238.217 203.271 243.137 180.024 243.137 180.024C243.137 180.024 240.992 173.426 237.228 173.364" fill="#FFD180"/>
<path opacity="0.5" d="M279.432 195.533H279.695V200.349H279.432V195.533Z" fill="#58555D"/>
<path opacity="0.5" d="M275.18 195.533H275.443V200.349H275.18V195.533Z" fill="#58555D"/>
<path opacity="0.5" d="M277.485 194H277.749V200.735H277.485V194Z" fill="#58555D"/>
<path opacity="0.5" d="M251.814 194.505H252.077V199.321H251.814V194.505Z" fill="#58555D"/>
<path opacity="0.5" d="M247.562 194.505H247.826V199.321H247.562V194.505Z" fill="#58555D"/>
<path opacity="0.5" d="M249.868 192.966H250.131V199.701H249.868V192.966Z" fill="#58555D"/>
<g opacity="0.5">
<path opacity="0.5" d="M260.436 477.351C244.431 472.144 235.808 455.336 241.176 439.81C246.543 424.283 263.869 415.918 279.874 421.125C295.878 426.332 304.502 443.14 299.134 458.667C293.766 474.193 276.441 482.558 260.436 477.351Z" fill="url(#paint10_linear)"/>
</g>
<path d="M261.057 475.556C246.074 470.681 238.002 454.947 243.027 440.412C248.051 425.877 264.27 418.046 279.253 422.921C294.235 427.795 302.308 443.53 297.283 458.064C292.258 472.599 276.039 480.43 261.057 475.556Z" fill="#F55F44"/>
<g opacity="0.5">
<path opacity="0.5" d="M346.304 486.421C350.415 487.76 355.534 486.807 357.441 482.981C358.54 480.769 358.276 478.296 358.019 475.903C357.737 473.28 357.499 471.018 359.021 469.554C359.808 468.905 360.734 468.434 361.732 468.177C363.016 467.76 364.404 467.411 365.727 467.074C368.086 466.548 370.39 465.814 372.612 464.881C376.979 462.893 379.773 459.535 380.081 455.896C380.345 452.781 378.797 449.94 377.32 447.217C375.842 444.494 374.352 441.79 375.059 439.117C376.016 435.509 380.48 433.796 384.41 432.263L385.052 432.026C389.857 430.157 395.008 426.213 393.723 421.154C393.274 419.39 392.124 418.038 391.013 416.792C390.259 415.982 389.612 415.084 389.086 414.119C387.352 410.574 389.728 406.474 390.788 404.873C391.616 403.627 392.599 402.48 393.55 401.34C395.04 399.665 396.358 397.854 397.487 395.932L397.667 395.608C400.274 390.822 400.326 390.623 400.107 385.408V384.785L397.834 384.872V385.495C398.026 390.224 398.026 390.224 395.656 394.573L395.477 394.897C394.417 396.694 393.18 398.386 391.783 399.95C390.801 401.128 389.786 402.349 388.893 403.652C386.138 407.695 385.464 411.851 387.037 415.06C387.652 416.187 388.412 417.234 389.298 418.175C390.287 419.322 391.225 420.406 391.546 421.677C392.548 425.609 387.429 428.736 384.243 429.97L383.633 430.207C379.413 431.827 374.16 433.846 372.914 438.537C371.989 442.02 373.704 445.161 375.367 448.201C376.761 450.756 378.084 453.186 377.872 455.678C377.589 459.024 374.5 461.572 371.706 462.85C369.611 463.726 367.437 464.414 365.213 464.906C363.851 465.249 362.445 465.61 361.07 466.052C359.735 466.408 358.503 467.061 357.474 467.959C355.181 470.165 355.502 473.187 355.81 476.109C356.041 478.289 356.266 480.352 355.444 481.997C353.96 484.975 349.362 485.411 346.163 483.947C343.543 482.751 341.481 480.713 339.297 478.564C338.591 477.866 337.859 477.149 337.114 476.464C333.042 472.725 328.925 471.093 325.2 471.722C324.018 471.961 322.866 472.322 321.763 472.8C320.906 473.166 320.019 473.462 319.111 473.685C317.086 474.035 314.999 473.631 313.267 472.555C311.535 471.479 310.285 469.809 309.766 467.878C309.682 467.51 309.625 467.124 309.56 466.719C309.361 465.423 309.136 463.953 308.07 462.812C307.004 461.672 305.315 461.255 304.114 460.987L291.718 458.208L291.204 460.357L303.6 463.136C304.775 463.398 305.797 463.672 306.381 464.295C306.966 464.918 307.139 465.959 307.3 467.043C307.364 467.467 307.434 467.909 307.531 468.345C308.183 470.847 309.794 473.012 312.035 474.402C314.276 475.791 316.979 476.299 319.593 475.822C320.624 475.572 321.631 475.239 322.605 474.825C323.559 474.409 324.556 474.091 325.578 473.878C329.355 473.255 333.074 475.791 335.534 478.046C336.247 478.701 336.966 479.411 337.66 480.09C339.888 482.283 342.188 484.558 345.174 485.922C345.541 486.109 345.918 486.276 346.304 486.421Z" fill="url(#paint11_linear)"/>
</g>
<path d="M345.996 485.324C350.107 486.664 355.225 485.71 357.133 481.885C358.231 479.673 357.968 477.199 357.711 474.806C357.428 472.183 357.191 469.922 358.713 468.457C359.499 467.808 360.425 467.338 361.423 467.08C362.708 466.663 364.095 466.314 365.418 465.978C367.777 465.452 370.082 464.717 372.303 463.784C376.671 461.797 379.465 458.438 379.773 454.8C380.036 451.684 378.488 448.843 377.011 446.12C375.534 443.397 374.044 440.693 374.75 438.02C375.707 434.413 380.171 432.699 384.102 431.166L384.744 430.93C389.548 429.06 394.699 425.116 393.415 420.057C392.965 418.294 391.816 416.942 390.704 415.696C389.951 414.885 389.304 413.987 388.778 413.023C387.043 409.477 389.42 405.377 390.48 403.776C391.308 402.53 392.291 401.384 393.241 400.243C394.731 398.568 396.05 396.757 397.178 394.835L397.358 394.511C399.966 389.726 400.017 389.526 399.799 384.311V383.688L397.525 383.776V384.399C397.718 389.128 397.718 389.128 395.348 393.477L395.168 393.801C394.108 395.597 392.872 397.289 391.475 398.854C390.492 400.031 389.478 401.253 388.585 402.555C385.83 406.599 385.155 410.755 386.729 413.963C387.344 415.09 388.103 416.137 388.99 417.079C389.979 418.225 390.916 419.309 391.237 420.58C392.239 424.512 387.121 427.64 383.935 428.874L383.325 429.11C379.105 430.73 373.851 432.749 372.605 437.441C371.68 440.924 373.395 444.064 375.059 447.105C376.452 449.659 377.776 452.089 377.564 454.582C377.281 457.927 374.192 460.476 371.398 461.753C369.303 462.629 367.129 463.317 364.904 463.809C363.543 464.152 362.136 464.513 360.762 464.956C359.426 465.311 358.195 465.964 357.165 466.862C354.872 469.068 355.193 472.09 355.502 475.012C355.733 477.193 355.958 479.255 355.136 480.9C353.652 483.878 349.053 484.315 345.855 482.85C343.234 481.654 341.173 479.617 338.989 477.467C338.282 476.769 337.55 476.053 336.805 475.367C332.733 471.629 328.616 469.996 324.891 470.626C323.709 470.864 322.557 471.226 321.455 471.704C320.598 472.069 319.71 472.365 318.802 472.588C316.777 472.938 314.691 472.535 312.959 471.458C311.227 470.382 309.977 468.712 309.457 466.781C309.374 466.414 309.316 466.027 309.252 465.622C309.053 464.326 308.828 462.856 307.762 461.716C306.696 460.575 305.007 460.158 303.806 459.89L291.41 457.111L290.896 459.261L303.292 462.04C304.467 462.301 305.488 462.576 306.073 463.199C306.657 463.822 306.831 464.862 306.991 465.946C307.055 466.37 307.126 466.812 307.222 467.249C307.875 469.75 309.485 471.916 311.726 473.305C313.968 474.694 316.67 475.202 319.284 474.725C320.315 474.476 321.323 474.142 322.296 473.729C323.251 473.312 324.247 472.995 325.27 472.781C329.047 472.158 332.765 474.694 335.225 476.95C335.938 477.604 336.658 478.314 337.351 478.994C339.58 481.187 341.879 483.461 344.866 484.825C345.232 485.013 345.61 485.179 345.996 485.324Z" fill="#F55F44"/>
<path opacity="0.2" d="M271.821 429.465C271.821 429.465 255.989 427.141 248.236 448.575" stroke="black" stroke-miterlimit="10"/>
<path opacity="0.2" d="M289.335 463.61C289.335 463.61 301.089 447.472 280.145 429.677" stroke="black" stroke-miterlimit="10"/>
<path opacity="0.2" d="M284.525 457.716C284.525 457.716 290.196 449.248 284.249 441.659" stroke="black" stroke-miterlimit="10"/>
<path opacity="0.2" d="M274.371 438.444C274.371 438.444 266.862 441.323 265.809 454.289" stroke="black" stroke-miterlimit="10"/>
<path opacity="0.2" d="M265.559 423.266C265.559 423.266 253.831 425.44 245.648 441.086" stroke="black" stroke-miterlimit="10"/>
<path opacity="0.2" d="M280.671 428.182C280.671 428.182 275.128 424.381 269.984 426.369" stroke="black" stroke-miterlimit="10"/>
<path opacity="0.2" d="M276.483 464.065C276.483 464.065 269.072 468.638 249.971 455.441" stroke="black" stroke-miterlimit="10"/>
<path opacity="0.2" d="M277.8 473.162C277.8 473.162 273.163 477.641 263.51 473.834" stroke="black" stroke-miterlimit="10"/>
<path opacity="0.2" d="M291.551 433.391C293.542 436.256 294.88 439.501 295.476 442.908C296.072 446.315 295.912 449.806 295.007 453.148" stroke="black" stroke-miterlimit="10"/>
<path opacity="0.2" d="M285.328 462.301C285.328 462.301 285.938 466.495 281.101 468.576" stroke="black" stroke-miterlimit="10"/>
<path opacity="0.2" d="M246.882 457.448C246.882 457.448 247.177 465.548 251.801 466.034" stroke="black" stroke-miterlimit="10"/>
<path opacity="0.2" d="M272.258 469.361C269.467 469.722 266.628 469.461 263.956 468.597C261.285 467.733 258.852 466.29 256.843 464.376" stroke="black" stroke-miterlimit="10"/>
<path opacity="0.2" d="M265.115 440.425C265.115 440.425 261.101 443.111 261.5 447.902" stroke="black" stroke-miterlimit="10"/>
<path opacity="0.2" d="M280.427 445.74C280.427 445.74 281.545 451.429 278.661 454.812" stroke="black" stroke-miterlimit="10"/>
<path opacity="0.2" d="M277.036 444.637C277.036 444.637 272.913 449.622 274.036 453.31" stroke="black" stroke-miterlimit="10"/>
</g>
<defs>
<linearGradient id="paint0_linear" x1="311.5" y1="383.981" x2="311.5" y2="56.4068" gradientUnits="userSpaceOnUse">
<stop stop-color="#808080" stop-opacity="0.25"/>
<stop offset="0.54" stop-color="#808080" stop-opacity="0.12"/>
<stop offset="1" stop-color="#808080" stop-opacity="0.1"/>
</linearGradient>
<linearGradient id="paint1_linear" x1="-48212.8" y1="-276818" x2="-33364.8" y2="-298579" gradientUnits="userSpaceOnUse">
<stop stop-color="#808080" stop-opacity="0.25"/>
<stop offset="0.54" stop-color="#808080" stop-opacity="0.12"/>
<stop offset="1" stop-color="#808080" stop-opacity="0.1"/>
</linearGradient>
<linearGradient id="paint2_linear" x1="-6524.68" y1="-40168.8" x2="-6259.69" y2="-40557.1" gradientUnits="userSpaceOnUse">
<stop stop-color="#808080" stop-opacity="0.25"/>
<stop offset="0.54" stop-color="#808080" stop-opacity="0.12"/>
<stop offset="1" stop-color="#808080" stop-opacity="0.1"/>
</linearGradient>
<linearGradient id="paint3_linear" x1="-7721.58" y1="-39533.3" x2="-7456.49" y2="-39921.9" gradientUnits="userSpaceOnUse">
<stop stop-color="#808080" stop-opacity="0.25"/>
<stop offset="0.54" stop-color="#808080" stop-opacity="0.12"/>
<stop offset="1" stop-color="#808080" stop-opacity="0.1"/>
</linearGradient>
<linearGradient id="paint4_linear" x1="-5901.01" y1="-38831.6" x2="-5635.92" y2="-39220.1" gradientUnits="userSpaceOnUse">
<stop stop-color="#808080" stop-opacity="0.25"/>
<stop offset="0.54" stop-color="#808080" stop-opacity="0.12"/>
<stop offset="1" stop-color="#808080" stop-opacity="0.1"/>
</linearGradient>
<linearGradient id="paint5_linear" x1="-7031.14" y1="-38148.8" x2="-6766.05" y2="-38537.4" gradientUnits="userSpaceOnUse">
<stop stop-color="#808080" stop-opacity="0.25"/>
<stop offset="0.54" stop-color="#808080" stop-opacity="0.12"/>
<stop offset="1" stop-color="#808080" stop-opacity="0.1"/>
</linearGradient>
<linearGradient id="paint6_linear" x1="-35088.3" y1="29107.7" x2="-35088.3" y2="17371.6" gradientUnits="userSpaceOnUse">
<stop stop-color="#808080" stop-opacity="0.25"/>
<stop offset="0.54" stop-color="#808080" stop-opacity="0.12"/>
<stop offset="1" stop-color="#808080" stop-opacity="0.1"/>
</linearGradient>
<linearGradient id="paint7_linear" x1="-67677.1" y1="62009.5" x2="-67677.1" y2="27452.9" gradientUnits="userSpaceOnUse">
<stop stop-color="#808080" stop-opacity="0.25"/>
<stop offset="0.54" stop-color="#808080" stop-opacity="0.12"/>
<stop offset="1" stop-color="#808080" stop-opacity="0.1"/>
</linearGradient>
<linearGradient id="paint8_linear" x1="266.304" y1="153.482" x2="266.304" y2="147.176" gradientUnits="userSpaceOnUse">
<stop stop-color="white"/>
<stop offset="1"/>
</linearGradient>
<linearGradient id="paint9_linear" x1="-240527" y1="265846" x2="-240527" y2="23026.4" gradientUnits="userSpaceOnUse">
<stop stop-color="#808080" stop-opacity="0.25"/>
<stop offset="0.54" stop-color="#808080" stop-opacity="0.12"/>
<stop offset="1" stop-color="#808080" stop-opacity="0.1"/>
</linearGradient>
<linearGradient id="paint10_linear" x1="-61944.6" y1="-39695" x2="-60193" y2="-45078.7" gradientUnits="userSpaceOnUse">
<stop stop-color="#808080" stop-opacity="0.25"/>
<stop offset="0.54" stop-color="#808080" stop-opacity="0.12"/>
<stop offset="1" stop-color="#808080" stop-opacity="0.1"/>
</linearGradient>
<linearGradient id="paint11_linear" x1="-99404.4" y1="-69937.8" x2="-93654.8" y2="-87609.9" gradientUnits="userSpaceOnUse">
<stop stop-color="#808080" stop-opacity="0.25"/>
<stop offset="0.54" stop-color="#808080" stop-opacity="0.12"/>
<stop offset="1" stop-color="#808080" stop-opacity="0.1"/>
</linearGradient>
<clipPath id="clip0">
<rect width="623" height="487" fill="white" transform="matrix(-1 0 0 1 623 0)"/>
</clipPath>
</defs>
</svg>
